<svg xmlns="http://www.w3.org/2000/svg" xlink="http://www.w3.org/1999/xlink" width="0" height="0" style="display:none;"><symbol viewBox="0 0 24 24" id="price-tag-3-line"><path fill="none" d="M0 0h24v24H0z"/><path d="M10.9 2.1l9.899 1.415 1.414 9.9-9.192 9.192a1 1 0 0 1-1.414 0l-9.9-9.9a1 1 0 0 1 0-1.414L10.9 2.1zm.707 2.122L3.828 12l8.486 8.485 7.778-7.778-1.06-7.425-7.425-1.06zm2.12 6.364a2 2 0 1 1 2.83-2.829 2 2 0 0 1-2.83 2.829z"/></symbol><symbol viewBox="0 0 24 24" id="pencil-line"><path fill="none" d="M0 0h24v24H0z"/><path d="M15.728 9.686l-1.414-1.414L5 17.586V19h1.414l9.314-9.314zm1.414-1.414l1.414-1.414-1.414-1.414-1.414 1.414 1.414 1.414zM7.242 21H3v-4.243L16.435 3.322a1 1 0 0 1 1.414 0l2.829 2.829a1 1 0 0 1 0 1.414L7.243 21z"/></symbol><symbol viewBox="0 0 24 24" id="calendar-line"><path fill="none" d="M0 0h24v24H0z"/><path d="M17 3h4a1 1 0 0 1 1 1v16a1 1 0 0 1-1 1H3a1 1 0 0 1-1-1V4a1 1 0 0 1 1-1h4V1h2v2h6V1h2v2zm-2 2H9v2H7V5H4v4h16V5h-3v2h-2V5zm5 6H4v8h16v-8z"/></symbol><symbol viewBox="0 0 24 24" id="facebook-circle-line"><path fill="none" d="M0 0h24v24H0z"/><path d="M13 19.938A8.001 8.001 0 0 0 12 4a8 8 0 0 0-1 15.938V14H9v-2h2v-1.654c0-1.337.14-1.822.4-2.311A2.726 2.726 0 0 1 12.536 6.9c.382-.205.857-.328 1.687-.381.329-.021.755.005 1.278.08v1.9H15c-.917 0-1.296.043-1.522.164a.727.727 0 0 0-.314.314c-.12.226-.164.45-.164 1.368V12h2.5l-.5 2h-2v5.938zM12 22C6.477 22 2 17.523 2 12S6.477 2 12 2s10 4.477 10 10-4.477 10-10 10z"/></symbol><symbol viewBox="0 0 24 24" id="twitter-line"><path fill="none" d="M0 0h24v24H0z"/><path d="M15.3 5.55a2.9 2.9 0 0 0-2.9 2.847l-.028 1.575a.6.6 0 0 1-.68.583l-1.561-.212c-2.054-.28-4.022-1.226-5.91-2.799-.598 3.31.57 5.603 3.383 7.372l1.747 1.098a.6.6 0 0 1 .034.993L7.793 18.17c.947.059 1.846.017 2.592-.131 4.718-.942 7.855-4.492 7.855-10.348 0-.478-1.012-2.141-2.94-2.141zm-4.9 2.81a4.9 4.9 0 0 1 8.385-3.355c.711-.005 1.316.175 2.669-.645-.335 1.64-.5 2.352-1.214 3.331 0 7.642-4.697 11.358-9.463 12.309-3.268.652-8.02-.419-9.382-1.841.694-.054 3.514-.357 5.144-1.55C5.16 15.7-.329 12.47 3.278 3.786c1.693 1.977 3.41 3.323 5.15 4.037 1.158.475 1.442.465 1.973.538z"/></symbol><symbol viewBox="0 0 24 24" id="instagram-line"><path fill="none" d="M0 0h24v24H0z"/><path d="M12 9a3 3 0 1 0 0 6 3 3 0 0 0 0-6zm0-2a5 5 0 1 1 0 10 5 5 0 0 1 0-10zm6.5-.25a1.25 1.25 0 0 1-2.5 0 1.25 1.25 0 0 1 2.5 0zM12 4c-2.474 0-2.878.007-4.029.058-.784.037-1.31.142-1.798.332-.434.168-.747.369-1.08.703a2.89 2.89 0 0 0-.704 1.08c-.19.49-.295 1.015-.331 1.798C4.006 9.075 4 9.461 4 12c0 2.474.007 2.878.058 4.029.037.783.142 1.31.331 1.797.17.435.37.748.702 1.08.337.336.65.537 1.08.703.494.191 1.02.297 1.8.333C9.075 19.994 9.461 20 12 20c2.474 0 2.878-.007 4.029-.058.782-.037 1.309-.142 1.797-.331.433-.169.748-.37 1.08-.702.337-.337.538-.65.704-1.08.19-.493.296-1.02.332-1.8.052-1.104.058-1.49.058-4.029 0-2.474-.007-2.878-.058-4.029-.037-.782-.142-1.31-.332-1.798a2.911 2.911 0 0 0-.703-1.08 2.884 2.884 0 0 0-1.08-.704c-.49-.19-1.016-.295-1.798-.331C14.925 4.006 14.539 4 12 4zm0-2c2.717 0 3.056.01 4.122.06 1.065.05 1.79.217 2.428.465.66.254 1.216.598 1.772 1.153a4.908 4.908 0 0 1 1.153 1.772c.247.637.415 1.363.465 2.428.047 1.066.06 1.405.06 4.122 0 2.717-.01 3.056-.06 4.122-.05 1.065-.218 1.79-.465 2.428a4.883 4.883 0 0 1-1.153 1.772 4.915 4.915 0 0 1-1.772 1.153c-.637.247-1.363.415-2.428.465-1.066.047-1.405.06-4.122.06-2.717 0-3.056-.01-4.122-.06-1.065-.05-1.79-.218-2.428-.465a4.89 4.89 0 0 1-1.772-1.153 4.904 4.904 0 0 1-1.153-1.772c-.248-.637-.415-1.363-.465-2.428C2.013 15.056 2 14.717 2 12c0-2.717.01-3.056.06-4.122.05-1.066.217-1.79.465-2.428a4.88 4.88 0 0 1 1.153-1.772A4.897 4.897 0 0 1 5.45 2.525c.638-.248 1.362-.415 2.428-.465C8.944 2.013 9.283 2 12 2z"/></symbol><symbol viewBox="0 0 24 24" id="github-line"><path fill="none" d="M0 0h24v24H0z"/><path d="M5.883 18.653c-.3-.2-.558-.455-.86-.816a50.32 50.32 0 0 1-.466-.579c-.463-.575-.755-.84-1.057-.949a1 1 0 0 1 .676-1.883c.752.27 1.261.735 1.947 1.588-.094-.117.34.427.433.539.19.227.33.365.44.438.204.137.587.196 1.15.14.023-.382.094-.753.202-1.095C5.38 15.31 3.7 13.396 3.7 9.64c0-1.24.37-2.356 1.058-3.292-.218-.894-.185-1.975.302-3.192a1 1 0 0 1 .63-.582c.081-.024.127-.035.208-.047.803-.123 1.937.17 3.415 1.096A11.731 11.731 0 0 1 12 3.315c.912 0 1.818.104 2.684.308 1.477-.933 2.613-1.226 3.422-1.096.085.013.157.03.218.05a1 1 0 0 1 .616.58c.487 1.216.52 2.297.302 3.19.691.936 1.058 2.045 1.058 3.293 0 3.757-1.674 5.665-4.642 6.392.125.415.19.879.19 1.38a300.492 300.492 0 0 1-.012 2.716 1 1 0 0 1-.019 1.958c-1.139.228-1.983-.532-1.983-1.525l.002-.446.005-.705c.005-.708.007-1.338.007-1.998 0-.697-.183-1.152-.425-1.36-.661-.57-.326-1.655.54-1.752 2.967-.333 4.337-1.482 4.337-4.66 0-.955-.312-1.744-.913-2.404a1 1 0 0 1-.19-1.045c.166-.414.237-.957.096-1.614l-.01.003c-.491.139-1.11.44-1.858.949a1 1 0 0 1-.833.135A9.626 9.626 0 0 0 12 5.315c-.89 0-1.772.119-2.592.35a1 1 0 0 1-.83-.134c-.752-.507-1.374-.807-1.868-.947-.144.653-.073 1.194.092 1.607a1 1 0 0 1-.189 1.045C6.016 7.89 5.7 8.694 5.7 9.64c0 3.172 1.371 4.328 4.322 4.66.865.097 1.201 1.177.544 1.748-.192.168-.429.732-.429 1.364v3.15c0 .986-.835 1.725-1.96 1.528a1 1 0 0 1-.04-1.962v-.99c-.91.061-1.662-.088-2.254-.485z"/></symbol><symbol viewBox="0 0 24 24" id="rss-line"><path fill="none" d="M0 0h24v24H0z"/><path d="M3 17a4 4 0 0 1 4 4H3v-4zm0-7c6.075 0 11 4.925 11 11h-2a9 9 0 0 0-9-9v-2zm0-7c9.941 0 18 8.059 18 18h-2c0-8.837-7.163-16-16-16V3z"/></symbol><symbol viewBox="0 0 24 24" id="heart-line"><path fill="none" d="M0 0H24V24H0z"/><path d="M12.001 4.529c2.349-2.109 5.979-2.039 8.242.228 2.262 2.268 2.34 5.88.236 8.236l-8.48 8.492-8.478-8.492c-2.104-2.356-2.025-5.974.236-8.236 2.265-2.264 5.888-2.34 8.244-.228zm6.826 1.641c-1.5-1.502-3.92-1.563-5.49-.153l-1.335 1.198-1.336-1.197c-1.575-1.412-3.99-1.35-5.494.154-1.49 1.49-1.565 3.875-.192 5.451L12 18.654l7.02-7.03c1.374-1.577 1.299-3.959-.193-5.454z"/></symbol><symbol viewBox="0 0 24 24" id="star-fill"><path fill="none" d="M0 0h24v24H0z"/><path d="M12 18.26l-7.053 3.948 1.575-7.928L.587 8.792l8.027-.952L12 .5l3.386 7.34 8.027.952-5.935 5.488 1.575 7.928z"/></symbol><symbol viewBox="0 0 24 24" id="star-half-fill"><path fill="none" d="M0 0h24v24H0z"/><path d="M12 15.968l4.247 2.377-.949-4.773 3.573-3.305-4.833-.573L12 5.275v10.693zm0 2.292l-7.053 3.948 1.575-7.928L.587 8.792l8.027-.952L12 .5l3.386 7.34 8.027.952-5.935 5.488 1.575 7.928L12 18.26z"/></symbol><symbol viewBox="0 0 24 24" id="star-line"><path fill="none" d="M0 0h24v24H0z"/><path d="M12 18.26l-7.053 3.948 1.575-7.928L.587 8.792l8.027-.952L12 .5l3.386 7.34 8.027.952-5.935 5.488 1.575 7.928L12 18.26zm0-2.292l4.247 2.377-.949-4.773 3.573-3.305-4.833-.573L12 5.275l-2.038 4.42-4.833.572 3.573 3.305-.949 4.773L12 15.968z"/></symbol><symbol viewBox="0 0 24 24" id="spotify-line"><path fill="none" d="M0 0h24v24H0z"/><path d="M12 2c5.55 0 10 4.5 10 10s-4.5 10-10 10S2 17.5 2 12 6.5 2 12 2zm0 2c-4.395 0-8 3.605-8 8s3.605 8 8 8 8-3.605 8-8c0-4.414-3.573-8-8-8zm3.75 12.65c-2.35-1.45-5.3-1.75-8.8-.95-.35.1-.65-.15-.75-.45-.1-.35.15-.65.45-.75 3.8-.85 7.1-.5 9.7 1.1.35.15.4.55.25.85-.2.3-.55.4-.85.2zm1-2.7c-2.7-1.65-6.8-2.15-9.95-1.15-.4.1-.85-.1-.95-.5-.1-.4.1-.85.5-.95 3.65-1.1 8.15-.55 11.25 1.35.3.15.45.65.2 1s-.7.5-1.05.25zM6.3 9.75c-.5.15-1-.15-1.15-.6-.15-.5.15-1 .6-1.15 3.55-1.05 9.4-.85 13.1 1.35.45.25.6.85.35 1.3-.25.35-.85.5-1.3.25C14.7 9 9.35 8.8 6.3 9.75z"/></symbol><symbol viewBox="0 0 24 24" id="codepen-line"><path fill="none" d="M0 0h24v24H0z"/><path d="M16.5 13.202L13 15.535v3.596L19.197 15 16.5 13.202zM14.697 12L12 10.202 9.303 12 12 13.798 14.697 12zM20 10.869L18.303 12 20 13.131V10.87zM19.197 9L13 4.869v3.596l3.5 2.333L19.197 9zM7.5 10.798L11 8.465V4.869L4.803 9 7.5 10.798zM4.803 15L11 19.131v-3.596l-3.5-2.333L4.803 15zM4 13.131L5.697 12 4 10.869v2.262zM2 9a1 1 0 0 1 .445-.832l9-6a1 1 0 0 1 1.11 0l9 6A1 1 0 0 1 22 9v6a1 1 0 0 1-.445.832l-9 6a1 1 0 0 1-1.11 0l-9-6A1 1 0 0 1 2 15V9z"/></symbol><symbol viewBox="0 0 24 24" id="stack-overflow-line"><path fill="none" d="M0 0h24v24H0z"/><path d="M18 20.002V15h2v7.002H4V15h2v5.002h12zM7.5 18v-2h9v2h-9zm.077-4.38l.347-1.97 8.864 1.563-.348 1.97-8.863-1.563zm1.634-5.504l1-1.732 7.794 4.5-1 1.732-7.794-4.5zm3.417-4.613l1.532-1.286 5.785 6.895-1.532 1.285-5.785-6.894z"/></symbol><symbol viewBox="0 0 24 24" id="copyright-line"><path fill="none" d="M0 0h24v24H0z"/><path d="M12 2c5.52 0 10 4.48 10 10s-4.48 10-10 10S2 17.52 2 12 6.48 2 12 2zm0 2c-4.42 0-8 3.58-8 8s3.58 8 8 8 8-3.58 8-8-3.58-8-8-8zm0 3c1.82 0 3.413.973 4.288 2.428l-1.714 1.029A3 3 0 1 0 12 15a2.998 2.998 0 0 0 2.573-1.456l1.715 1.028A4.999 4.999 0 0 1 7 12c0-2.76 2.24-5 5-5z"/></symbol><symbol viewBox="0 0 24 24" id="error-warning-line"><path fill="none" d="M0 0h24v24H0z"/><path d="M12 22C6.477 22 2 17.523 2 12S6.477 2 12 2s10 4.477 10 10-4.477 10-10 10zm0-2a8 8 0 1 0 0-16 8 8 0 0 0 0 16zm-1-5h2v2h-2v-2zm0-8h2v6h-2V7z"/></symbol><symbol viewBox="0 0 24 24" id="information-line"><path fill="none" d="M0 0h24v24H0z"/><path d="M12 22C6.477 22 2 17.523 2 12S6.477 2 12 2s10 4.477 10 10-4.477 10-10 10zm0-2a8 8 0 1 0 0-16 8 8 0 0 0 0 16zM11 7h2v2h-2V7zm0 4h2v6h-2v-6z"/></symbol><symbol viewBox="0 0 24 24" id="question-line"><path fill="none" d="M0 0h24v24H0z"/><path d="M12 22C6.477 22 2 17.523 2 12S6.477 2 12 2s10 4.477 10 10-4.477 10-10 10zm0-2a8 8 0 1 0 0-16 8 8 0 0 0 0 16zm-1-5h2v2h-2v-2zm2-1.645V14h-2v-1.5a1 1 0 0 1 1-1 1.5 1.5 0 1 0-1.471-1.794l-1.962-.393A3.501 3.501 0 1 1 13 13.355z"/></symbol><symbol viewBox="0 0 24 24" id="forbid-2-line"><path fill="none" d="M0 0h24v24H0z"/><path d="M12 22C6.477 22 2 17.523 2 12S6.477 2 12 2s10 4.477 10 10-4.477 10-10 10zm0-2a8 8 0 1 0 0-16 8 8 0 0 0 0 16zm4.891-11.477l-8.368 8.368a6.04 6.04 0 0 1-1.414-1.414l8.368-8.368a6.04 6.04 0 0 1 1.414 1.414z"/></symbol><symbol viewBox="0 0 24 24" id="close-fill"><path fill="none" d="M0 0h24v24H0z"/><path d="M12 10.586l4.95-4.95 1.414 1.414-4.95 4.95 4.95 4.95-1.414 1.414-4.95-4.95-4.95 4.95-1.414-1.414 4.95-4.95-4.95-4.95L7.05 5.636z"/></symbol><symbol viewBox="0 0 24 24" id="check-fill"><path fill="none" d="M0 0h24v24H0z"/><path d="M10 15.172l9.192-9.193 1.415 1.414L10 18l-6.364-6.364 1.414-1.414z"/></symbol><symbol viewBox="0 0 24 24" id="arrow-right-s-line"><path fill="none" d="M0 0h24v24H0z"/><path d="M13.172 12l-4.95-4.95 1.414-1.414L16 12l-6.364 6.364-1.414-1.414z"/></symbol><symbol viewBox="0 0 24 24" id="arrow-left-s-line"><path fill="none" d="M0 0h24v24H0z"/><path d="M10.828 12l4.95 4.95-1.414 1.414L8 12l6.364-6.364 1.414 1.414z"/></symbol><symbol viewBox="0 0 24 24" id="arrow-right-s-fill"><path fill="none" d="M0 0h24v24H0z"/><path d="M16 12l-6 6V6z"/></symbol><symbol viewBox="0 0 24 24" id="arrow-left-s-fill"><path fill="none" d="M0 0h24v24H0z"/><path d="M8 12l6-6v12z"/></symbol><symbol viewBox="0 0 24 24" id="arrow-up-s-fill"><path fill="none" d="M0 0h24v24H0z"/><path d="M12 8l6 6H6z"/></symbol><symbol viewBox="0 0 24 24" id="arrow-down-s-fill"><path fill="none" d="M0 0h24v24H0z"/><path d="M12 16l-6-6h12z"/></symbol><symbol viewBox="0 0 24 24" id="search-2-line"><path fill="none" d="M0 0h24v24H0z"/><path d="M11 2c4.968 0 9 4.032 9 9s-4.032 9-9 9-9-4.032-9-9 4.032-9 9-9zm0 16c3.867 0 7-3.133 7-7 0-3.868-3.133-7-7-7-3.868 0-7 3.132-7 7 0 3.867 3.132 7 7 7zm8.485.071l2.829 2.828-1.415 1.415-2.828-2.829 1.414-1.414z"/></symbol><symbol viewBox="0 0 24 24" id="share-forward-line"><path fill="none" d="M0 0h24v24H0z"/><path d="M13 14h-2a8.999 8.999 0 0 0-7.968 4.81A10.136 10.136 0 0 1 3 18C3 12.477 7.477 8 13 8V2.5L23.5 11 13 19.5V14zm-2-2h4v3.308L20.321 11 15 6.692V10h-2a7.982 7.982 0 0 0-6.057 2.773A10.988 10.988 0 0 1 11 12z"/></symbol><symbol viewBox="0 0 24 24" id="share-line"><path fill="none" d="M0 0h24v24H0z"/><path d="M13.12 17.023l-4.199-2.29a4 4 0 1 1 0-5.465l4.2-2.29a4 4 0 1 1 .959 1.755l-4.2 2.29a4.008 4.008 0 0 1 0 1.954l4.199 2.29a4 4 0 1 1-.959 1.755zM6 14a2 2 0 1 0 0-4 2 2 0 0 0 0 4zm11-6a2 2 0 1 0 0-4 2 2 0 0 0 0 4zm0 12a2 2 0 1 0 0-4 2 2 0 0 0 0 4z"/></symbol><symbol viewBox="0 0 24 24" id="share-box-fill"><path fill="none" d="M0 0h24v24H0z"/><path d="M10 3v2H5v14h14v-5h2v6a1 1 0 0 1-1 1H4a1 1 0 0 1-1-1V4a1 1 0 0 1 1-1h6zm7.707 4.707L12 13.414 10.586 12l5.707-5.707L13 3h8v8l-3.293-3.293z"/></symbol><symbol viewBox="0 0 24 24" id="time-line"><path fill="none" d="M0 0h24v24H0z"/><path d="M12 22C6.477 22 2 17.523 2 12S6.477 2 12 2s10 4.477 10 10-4.477 10-10 10zm0-2a8 8 0 1 0 0-16 8 8 0 0 0 0 16zm1-8h4v2h-6V7h2v5z"/></symbol><symbol viewBox="0 0 24 24" id="mail-line"><path fill="none" d="M0 0h24v24H0z"/><path d="M3 3h18a1 1 0 0 1 1 1v16a1 1 0 0 1-1 1H3a1 1 0 0 1-1-1V4a1 1 0 0 1 1-1zm17 4.238l-7.928 7.1L4 7.216V19h16V7.238zM4.511 5l7.55 6.662L19.502 5H4.511z"/></symbol><symbol viewBox="0 0 24 24" id="archive-drawer-line"><path fill="none" d="M0 0h24v24H0z"/><path d="M3 2.992C3 2.444 3.445 2 3.993 2h16.014a1 1 0 0 1 .993.992v18.016a.993.993 0 0 1-.993.992H3.993A1 1 0 0 1 3 21.008V2.992zM19 11V4H5v7h14zm0 2H5v7h14v-7zM9 6h6v2H9V6zm0 9h6v2H9v-2z"/></symbol><symbol viewBox="0 0 24 24" id="bookmark-line"><path fill="none" d="M0 0h24v24H0z"/><path d="M5 2h14a1 1 0 0 1 1 1v19.143a.5.5 0 0 1-.766.424L12 18.03l-7.234 4.536A.5.5 0 0 1 4 22.143V3a1 1 0 0 1 1-1zm13 2H6v15.432l6-3.761 6 3.761V4z"/></symbol><symbol viewBox="0 0 24 24" id="question-answer-line"><path fill="none" d="M0 0h24v24H0z"/><path d="M5.455 15L1 18.5V3a1 1 0 0 1 1-1h15a1 1 0 0 1 1 1v12H5.455zm-.692-2H16V4H3v10.385L4.763 13zM8 17h10.237L20 18.385V8h1a1 1 0 0 1 1 1v13.5L17.545 19H9a1 1 0 0 1-1-1v-1z"/></symbol><symbol viewBox="0 0 24 24" id="code-s-slash-fill"><path fill="none" d="M0 0h24v24H0z"/><path d="M24 12l-5.657 5.657-1.414-1.414L21.172 12l-4.243-4.243 1.414-1.414L24 12zM2.828 12l4.243 4.243-1.414 1.414L0 12l5.657-5.657L7.07 7.757 2.828 12zm6.96 9H7.66l6.552-18h2.128L9.788 21z"/></symbol><symbol viewBox="0 0 24 24" id="pushpin-line"><path fill="none" d="M0 0h24v24H0z"/><path d="M13.828 1.686l8.486 8.486-1.415 1.414-.707-.707-4.242 4.242-.707 3.536-1.415 1.414-4.242-4.243-4.95 4.95-1.414-1.414 4.95-4.95-4.243-4.242 1.414-1.415L8.88 8.05l4.242-4.242-.707-.707 1.414-1.415zm.708 3.536l-4.671 4.67-2.822.565 6.5 6.5.564-2.822 4.671-4.67-4.242-4.243z"/></symbol><symbol viewBox="0 0 24 24" id="gallery-line"><path fill="none" d="M0 0h24v24H0z"/><path d="M20 13c-1.678 0-3.249.46-4.593 1.259A14.984 14.984 0 0 1 18.147 19H20v-6zm-3.996 6C14.044 14.302 9.408 11 4 11v8h12.004zM4 9c3.83 0 7.323 1.435 9.974 3.796A10.949 10.949 0 0 1 20 11V3h1.008c.548 0 .992.445.992.993v16.014a1 1 0 0 1-.992.993H2.992A.993.993 0 0 1 2 20.007V3.993A1 1 0 0 1 2.992 3H6V1h2v4H4v4zm14-8v4h-8V3h6V1h2zm-1.5 9a1.5 1.5 0 1 1 0-3 1.5 1.5 0 0 1 0 3z"/></symbol><symbol viewBox="0 0 24 24" id="film-line"><path fill="none" d="M0 0h24v24H0z"/><path d="M2 3.993A1 1 0 0 1 2.992 3h18.016c.548 0 .992.445.992.993v16.014a1 1 0 0 1-.992.993H2.992A.993.993 0 0 1 2 20.007V3.993zM8 5v14h8V5H8zM4 5v2h2V5H4zm14 0v2h2V5h-2zM4 9v2h2V9H4zm14 0v2h2V9h-2zM4 13v2h2v-2H4zm14 0v2h2v-2h-2zM4 17v2h2v-2H4zm14 0v2h2v-2h-2z"/></symbol><symbol viewBox="0 0 24 24" id="camera-line"><path fill="none" d="M0 0h24v24H0z"/><path d="M9.828 5l-2 2H4v12h16V7h-3.828l-2-2H9.828zM9 3h6l2 2h4a1 1 0 0 1 1 1v14a1 1 0 0 1-1 1H3a1 1 0 0 1-1-1V6a1 1 0 0 1 1-1h4l2-2zm3 15a5.5 5.5 0 1 1 0-11 5.5 5.5 0 0 1 0 11zm0-2a3.5 3.5 0 1 0 0-7 3.5 3.5 0 0 0 0 7z"/></symbol><symbol viewBox="0 0 24 24" id="mv-line"><path fill="none" d="M0 0h24v24H0z"/><path d="M2 3.993A1 1 0 0 1 2.992 3h18.016c.548 0 .992.445.992.993v16.014a1 1 0 0 1-.992.993H2.992A.993.993 0 0 1 2 20.007V3.993zM4 5v14h16V5H4zm8 7.17V6h5v2h-3v7a3 3 0 1 1-2-2.83z"/></symbol><symbol viewBox="0 0 24 24" id="skip-back-line"><path fill="none" d="M0 0h24v24H0z"/><path d="M8 11.333l10.223-6.815a.5.5 0 0 1 .777.416v14.132a.5.5 0 0 1-.777.416L8 12.667V19a1 1 0 0 1-2 0V5a1 1 0 1 1 2 0v6.333zm9 4.93V7.737L10.606 12 17 16.263z"/></symbol><symbol viewBox="0 0 24 24" id="skip-forward-line"><path fill="none" d="M0 0h24v24H0z"/><path d="M16 12.667L5.777 19.482A.5.5 0 0 1 5 19.066V4.934a.5.5 0 0 1 .777-.416L16 11.333V5a1 1 0 0 1 2 0v14a1 1 0 0 1-2 0v-6.333zm-9-4.93v8.526L13.394 12 7 7.737z"/></symbol><symbol viewBox="0 0 24 24" id="youtube-line"><path fill="none" d="M0 0h24v24H0z"/><path d="M19.606 6.995c-.076-.298-.292-.523-.539-.592C18.63 6.28 16.5 6 12 6s-6.628.28-7.069.403c-.244.068-.46.293-.537.592C4.285 7.419 4 9.196 4 12s.285 4.58.394 5.006c.076.297.292.522.538.59C5.372 17.72 7.5 18 12 18s6.629-.28 7.069-.403c.244-.068.46-.293.537-.592C19.715 16.581 20 14.8 20 12s-.285-4.58-.394-5.005zm1.937-.497C22 8.28 22 12 22 12s0 3.72-.457 5.502c-.254.985-.997 1.76-1.938 2.022C17.896 20 12 20 12 20s-5.893 0-7.605-.476c-.945-.266-1.687-1.04-1.938-2.022C2 15.72 2 12 2 12s0-3.72.457-5.502c.254-.985.997-1.76 1.938-2.022C6.107 4 12 4 12 4s5.896 0 7.605.476c.945.266 1.687 1.04 1.938 2.022zM10 15.5v-7l6 3.5-6 3.5z"/></symbol><symbol viewBox="0 0 24 24" id="article-line"><path fill="none" d="M0 0h24v24H0z"/><path d="M20 22H4a1 1 0 0 1-1-1V3a1 1 0 0 1 1-1h16a1 1 0 0 1 1 1v18a1 1 0 0 1-1 1zm-1-2V4H5v16h14zM7 6h4v4H7V6zm0 6h10v2H7v-2zm0 4h10v2H7v-2zm6-9h4v2h-4V7z"/></symbol><symbol viewBox="0 0 24 24" id="stack-line"><path fill="none" d="M0 0h24v24H0z"/><path d="M20.083 15.2l1.202.721a.5.5 0 0 1 0 .858l-8.77 5.262a1 1 0 0 1-1.03 0l-8.77-5.262a.5.5 0 0 1 0-.858l1.202-.721L12 20.05l8.083-4.85zm0-4.7l1.202.721a.5.5 0 0 1 0 .858L12 17.65l-9.285-5.571a.5.5 0 0 1 0-.858l1.202-.721L12 15.35l8.083-4.85zm-7.569-9.191l8.771 5.262a.5.5 0 0 1 0 .858L12 13 2.715 7.429a.5.5 0 0 1 0-.858l8.77-5.262a1 1 0 0 1 1.03 0zM12 3.332L5.887 7 12 10.668 18.113 7 12 3.332z"/></symbol><symbol viewBox="0 0 24 24" id="external-link-line"><path fill="none" d="M0 0h24v24H0z"/><path d="M10 6v2H5v11h11v-5h2v6a1 1 0 0 1-1 1H4a1 1 0 0 1-1-1V7a1 1 0 0 1 1-1h6zm11-3v8h-2V6.413l-7.793 7.794-1.414-1.414L17.585 5H13V3h8z"/></symbol><symbol viewBox="0 0 24 24" id="links-fill"><path fill="none" d="M0 0h24v24H0z"/><path d="M13.06 8.11l1.415 1.415a7 7 0 0 1 0 9.9l-.354.353a7 7 0 0 1-9.9-9.9l1.415 1.415a5 5 0 1 0 7.071 7.071l.354-.354a5 5 0 0 0 0-7.07l-1.415-1.415 1.415-1.414zm6.718 6.011l-1.414-1.414a5 5 0 1 0-7.071-7.071l-.354.354a5 5 0 0 0 0 7.07l1.415 1.415-1.415 1.414-1.414-1.414a7 7 0 0 1 0-9.9l.354-.353a7 7 0 0 1 9.9 9.9z"/></symbol><symbol viewBox="0 0 24 24" id="double-quotes-l"><path fill="none" d="M0 0h24v24H0z"/><path d="M4.583 17.321C3.553 16.227 3 15 3 13.011c0-3.5 2.457-6.637 6.03-8.188l.893 1.378c-3.335 1.804-3.987 4.145-4.247 5.621.537-.278 1.24-.375 1.929-.311 1.804.167 3.226 1.648 3.226 3.489a3.5 3.5 0 0 1-3.5 3.5c-1.073 0-2.099-.49-2.748-1.179zm10 0C13.553 16.227 13 15 13 13.011c0-3.5 2.457-6.637 6.03-8.188l.893 1.378c-3.335 1.804-3.987 4.145-4.247 5.621.537-.278 1.24-.375 1.929-.311 1.804.167 3.226 1.648 3.226 3.489a3.5 3.5 0 0 1-3.5 3.5c-1.073 0-2.099-.49-2.748-1.179z"/></symbol><symbol viewBox="0 0 24 24" id="double-quotes-r"><path fill="none" d="M0 0h24v24H0z"/><path d="M19.417 6.679C20.447 7.773 21 9 21 10.989c0 3.5-2.457 6.637-6.03 8.188l-.893-1.378c3.335-1.804 3.987-4.145 4.247-5.621-.537.278-1.24.375-1.929.311-1.804-.167-3.226-1.648-3.226-3.489a3.5 3.5 0 0 1 3.5-3.5c1.073 0 2.099.49 2.748 1.179zm-10 0C10.447 7.773 11 9 11 10.989c0 3.5-2.457 6.637-6.03 8.188l-.893-1.378c3.335-1.804 3.987-4.145 4.247-5.621-.537.278-1.24.375-1.929.311C4.591 12.322 3.17 10.841 3.17 9a3.5 3.5 0 0 1 3.5-3.5c1.073 0 2.099.49 2.748 1.179z"/></symbol><symbol viewBox="0 0 24 24" id="heart-fill"><path fill="none" d="M0 0H24V24H0z"/><path d="M12.001 4.529c2.349-2.109 5.979-2.039 8.242.228 2.262 2.268 2.34 5.88.236 8.236l-8.48 8.492-8.478-8.492c-2.104-2.356-2.025-5.974.236-8.236 2.265-2.264 5.888-2.34 8.244-.228z"/></symbol><symbol viewBox="0 0 24 24" id="cake-line"><path fill="none" d="M0 0h24v24H0z"/><path d="M13 7v4h7a1 1 0 0 1 1 1v8h2v2H1v-2h2v-8a1 1 0 0 1 1-1h7V7h2zm6 6H5v7h14v-7zM13.83.402A3 3 0 0 1 12.732 4.5L11 5.5a3 3 0 0 1 1.098-4.098l1.732-1z"/></symbol><symbol viewBox="0 0 24 24" id="reply-line"><path fill="none" d="M0 0H24V24H0z"/><path d="M11 20L1 12l10-8v5c5.523 0 10 4.477 10 10 0 .273-.01.543-.032.81-1.463-2.774-4.33-4.691-7.655-4.805L13 15h-2v5zm-2-7h4.034l.347.007c1.285.043 2.524.31 3.676.766C15.59 12.075 13.42 11 11 11H9V8.161L4.202 12 9 15.839V13z"/></symbol><symbol viewBox="0 0 24 24" id="reply-all-line"><path fill="none" d="M0 0H24V24H0z"/><path d="M14 4.5V9c5.523 0 10 4.477 10 10 0 .273-.01.543-.032.81-1.463-2.774-4.33-4.691-7.655-4.805L16 15h-2v4.5L6 12l8-7.5zm-6 0v2.737L2.92 12l5.079 4.761L8 19.5 0 12l8-7.5zm4 4.616L8.924 12 12 14.883V13h4.034l.347.007c1.285.043 2.524.31 3.676.766C18.59 12.075 16.42 11 14 11h-2V9.116z"/></symbol><symbol viewBox="0 0 24 24" id="user-line"><path fill="none" d="M0 0h24v24H0z"/><path d="M4 22a8 8 0 1 1 16 0h-2a6 6 0 1 0-12 0H4zm8-9c-3.315 0-6-2.685-6-6s2.685-6 6-6 6 2.685 6 6-2.685 6-6 6zm0-2c2.21 0 4-1.79 4-4s-1.79-4-4-4-4 1.79-4 4 1.79 4 4 4z"/></symbol><symbol viewBox="0 0 24 24" id="asterisk"><path fill="none" d="M0 0h24v24H0z"/><path d="M13 3v7.267l6.294-3.633 1 1.732-6.293 3.633 6.293 3.635-1 1.732L13 13.732V21h-2v-7.268l-6.294 3.634-1-1.732L9.999 12 3.706 8.366l1-1.732L11 10.267V3z"/></symbol><symbol viewBox="0 0 24 24" id="windows-line"><path fill="none" d="M0 0H24V24H0z"/><path d="M21 2.5v19l-18-2v-15l18-2zm-2 10.499L12 13v5.487l7 .778V13zm-14 4.71l5 .556V13l-5-.001v4.71zM19 11V4.735l-7 .777V11l7-.001zm-9-5.265L5 6.29V11L10 11V5.734z"/></symbol><symbol viewBox="0 0 24 24" id="android-line"><path fill="none" d="M0 0h24v24H0z"/><path d="M19 13H5v7h14v-7zm0-2a7 7 0 0 0-14 0h14zM6.382 3.968A8.962 8.962 0 0 1 12 2c2.125 0 4.078.736 5.618 1.968l1.453-1.453 1.414 1.414-1.453 1.453A8.962 8.962 0 0 1 21 11v10a1 1 0 0 1-1 1H4a1 1 0 0 1-1-1V11c0-2.125.736-4.078 1.968-5.618L3.515 3.93l1.414-1.414 1.453 1.453zM9 9a1 1 0 1 1 0-2 1 1 0 0 1 0 2zm6 0a1 1 0 1 1 0-2 1 1 0 0 1 0 2z"/></symbol><symbol viewBox="0 0 24 24" id="ubuntu-line"><path fill="none" d="M0 0h24v24H0z"/><path d="M8.667 19.273l1.006-1.742a6.001 6.001 0 0 0 8.282-4.781h2.012A7.97 7.97 0 0 1 18.928 16a8 8 0 0 1-1.452 1.835 2.493 2.493 0 0 0-1.976.227 2.493 2.493 0 0 0-1.184 1.596 7.979 7.979 0 0 1-5.65-.385zm-1.3-.75a7.979 7.979 0 0 1-3.156-4.7C4.696 13.367 5 12.72 5 12c0-.72-.304-1.369-.791-1.825A8 8 0 0 1 5.072 8a7.97 7.97 0 0 1 2.295-2.524l1.006 1.742a6.001 6.001 0 0 0 0 9.563l-1.005 1.742zm1.3-13.796a8.007 8.007 0 0 1 5.648-.387c.152.65.562 1.238 1.185 1.598.623.36 1.337.42 1.976.227a8.007 8.007 0 0 1 2.49 5.085h-2.013A5.99 5.99 0 0 0 15 6.804a5.99 5.99 0 0 0-5.327-.335L8.667 4.727zM16 5.072a1.5 1.5 0 1 1 1.5-2.598A1.5 1.5 0 0 1 16 5.072zM4 12a1.5 1.5 0 1 1-3 0 1.5 1.5 0 0 1 3 0zm12 6.928a1.5 1.5 0 1 1 1.5 2.598 1.5 1.5 0 0 1-1.5-2.598z"/></symbol><symbol viewBox="0 0 24 24" id="apple-line"><path fill="none" d="M0 0h24v24H0z"/><path d="M15.729 8.208c-.473-.037-.981.076-1.759.373.066-.025-.742.29-.968.37-.502.175-.915.271-1.378.271-.458 0-.88-.092-1.366-.255-.155-.053-.311-.11-.505-.186-.082-.032-.382-.152-.448-.177-.648-.254-1.013-.35-1.316-.342-1.152.015-2.243.68-2.876 1.782-1.292 2.244-.577 6.299 1.312 9.031 1.006 1.444 1.556 1.96 1.778 1.953.222-.01.385-.057.783-.225l.167-.071c1.005-.429 1.71-.618 2.771-.618 1.021 0 1.703.186 2.668.602l.168.072c.398.17.542.208.792.202.358-.005.799-.417 1.778-1.854.268-.391.505-.803.71-1.22a7.354 7.354 0 0 1-.392-.347c-1.289-1.228-2.086-2.884-2.108-4.93a6.625 6.625 0 0 1 1.41-4.181 4.124 4.124 0 0 0-1.221-.25zm.155-1.994c.708.048 2.736.264 4.056 2.196-.108.06-2.424 1.404-2.4 4.212.036 3.36 2.94 4.476 2.976 4.488-.024.084-.468 1.596-1.536 3.156-.924 1.356-1.884 2.7-3.396 2.724-1.488.036-1.968-.876-3.66-.876-1.704 0-2.232.852-3.636.912-1.464.048-2.568-1.464-3.504-2.808-1.908-2.76-3.36-7.776-1.404-11.172.972-1.692 2.7-2.76 4.584-2.784 1.428-.036 2.784.96 3.66.96.864 0 2.412-1.152 4.26-1.008zm-1.14-1.824c-.78.936-2.052 1.668-3.288 1.572-.168-1.272.456-2.604 1.176-3.432.804-.936 2.148-1.632 3.264-1.68.144 1.296-.372 2.604-1.152 3.54z"/></symbol><symbol viewBox="0 0 24 24" id="alert-line"><path fill="none" d="M0 0h24v24H0z"/><path d="M12.866 3l9.526 16.5a1 1 0 0 1-.866 1.5H2.474a1 1 0 0 1-.866-1.5L11.134 3a1 1 0 0 1 1.732 0zm-8.66 16h15.588L12 5.5 4.206 19zM11 16h2v2h-2v-2zm0-7h2v5h-2V9z"/></symbol></svg>