<?xml version="1.0" encoding="utf-8" standalone="no"?>
<!DOCTYPE svg PUBLIC "-//W3C//DTD SVG 1.1//EN"
  "http://www.w3.org/Graphics/SVG/1.1/DTD/svg11.dtd">
<svg xmlns:xlink="http://www.w3.org/1999/xlink" width="687.89pt" height="233.984855pt" viewBox="0 0 687.89 233.984855" xmlns="http://www.w3.org/2000/svg" version="1.1">
 <metadata>
  <rdf:RDF xmlns:dc="http://purl.org/dc/elements/1.1/" xmlns:cc="http://creativecommons.org/ns#" xmlns:rdf="http://www.w3.org/1999/02/22-rdf-syntax-ns#">
   <cc:Work>
    <dc:type rdf:resource="http://purl.org/dc/dcmitype/StillImage"/>
    <dc:date>2026-08-29T19:39:28.004625</dc:date>
    <dc:format>image/svg+xml</dc:format>
    <dc:creator>
     <cc:Agent>
      <dc:title>Matplotlib v3.5.2, https://matplotlib.org/</dc:title>
     </cc:Agent>
    </dc:creator>
   </cc:Work>
  </rdf:RDF>
 </metadata>
 <defs>
  <style type="text/css">*{stroke-linejoin: round; stroke-linecap: butt}</style>
 </defs>
 <g id="figure_1">
  <g id="patch_1">
   <path d="M -0 233.984855 
L 687.89 233.984855 
L 687.89 0 
L -0 0 
z
" style="fill: #ffffff"/>
  </g>
  <g id="axes_1">
   <g id="patch_2">
    <path d="M 16.562727 217.418919 
L 203.817273 217.418919 
L 16.562727 30.164373 
z
" clip-path="url(#p3db2d48378)" style="fill: #0b6e4f; opacity: 0.15; stroke: #0b6e4f; stroke-linejoin: miter"/>
   </g>
   <g id="line2d_1">
    <path d="M 16.562727 217.418919 
L 203.817273 217.418919 
L 16.562727 30.164373 
L 16.562727 217.418919 
" clip-path="url(#p3db2d48378)" style="fill: none; stroke: #0b6e4f; stroke-width: 2.2; stroke-linecap: square"/>
   </g>
   <g id="text_1">
    <!-- 90° -->
    <g transform="translate(25.925455 208.056192)scale(0.09 -0.09)">
     <defs>
      <path id="DejaVuSans-39" d="M 703 97 
L 703 672 
Q 941 559 1184 500 
Q 1428 441 1663 441 
Q 2288 441 2617 861 
Q 2947 1281 2994 2138 
Q 2813 1869 2534 1725 
Q 2256 1581 1919 1581 
Q 1219 1581 811 2004 
Q 403 2428 403 3163 
Q 403 3881 828 4315 
Q 1253 4750 1959 4750 
Q 2769 4750 3195 4129 
Q 3622 3509 3622 2328 
Q 3622 1225 3098 567 
Q 2575 -91 1691 -91 
Q 1453 -91 1209 -44 
Q 966 3 703 97 
z
M 1959 2075 
Q 2384 2075 2632 2365 
Q 2881 2656 2881 3163 
Q 2881 3666 2632 3958 
Q 2384 4250 1959 4250 
Q 1534 4250 1286 3958 
Q 1038 3666 1038 3163 
Q 1038 2656 1286 2365 
Q 1534 2075 1959 2075 
z
" transform="scale(0.015625)"/>
      <path id="DejaVuSans-30" d="M 2034 4250 
Q 1547 4250 1301 3770 
Q 1056 3291 1056 2328 
Q 1056 1369 1301 889 
Q 1547 409 2034 409 
Q 2525 409 2770 889 
Q 3016 1369 3016 2328 
Q 3016 3291 2770 3770 
Q 2525 4250 2034 4250 
z
M 2034 4750 
Q 2819 4750 3233 4129 
Q 3647 3509 3647 2328 
Q 3647 1150 3233 529 
Q 2819 -91 2034 -91 
Q 1250 -91 836 529 
Q 422 1150 422 2328 
Q 422 3509 836 4129 
Q 1250 4750 2034 4750 
z
" transform="scale(0.015625)"/>
      <path id="DejaVuSans-b0" d="M 1600 4347 
Q 1350 4347 1178 4173 
Q 1006 4000 1006 3750 
Q 1006 3503 1178 3333 
Q 1350 3163 1600 3163 
Q 1850 3163 2022 3333 
Q 2194 3503 2194 3750 
Q 2194 3997 2020 4172 
Q 1847 4347 1600 4347 
z
M 1600 4750 
Q 1800 4750 1984 4673 
Q 2169 4597 2303 4453 
Q 2447 4313 2519 4134 
Q 2591 3956 2591 3750 
Q 2591 3338 2302 3052 
Q 2013 2766 1594 2766 
Q 1172 2766 890 3047 
Q 609 3328 609 3750 
Q 609 4169 896 4459 
Q 1184 4750 1600 4750 
z
" transform="scale(0.015625)"/>
     </defs>
     <use xlink:href="#DejaVuSans-39"/>
     <use xlink:href="#DejaVuSans-30" x="63.623047"/>
     <use xlink:href="#DejaVuSans-b0" x="127.246094"/>
    </g>
   </g>
   <g id="text_2">
    <!-- 45° -->
    <g transform="translate(213.18 208.056192)scale(0.09 -0.09)">
     <defs>
      <path id="DejaVuSans-34" d="M 2419 4116 
L 825 1625 
L 2419 1625 
L 2419 4116 
z
M 2253 4666 
L 3047 4666 
L 3047 1625 
L 3713 1625 
L 3713 1100 
L 3047 1100 
L 3047 0 
L 2419 0 
L 2419 1100 
L 313 1100 
L 313 1709 
L 2253 4666 
z
" transform="scale(0.015625)"/>
      <path id="DejaVuSans-35" d="M 691 4666 
L 3169 4666 
L 3169 4134 
L 1269 4134 
L 1269 2991 
Q 1406 3038 1543 3061 
Q 1681 3084 1819 3084 
Q 2600 3084 3056 2656 
Q 3513 2228 3513 1497 
Q 3513 744 3044 326 
Q 2575 -91 1722 -91 
Q 1428 -91 1123 -41 
Q 819 9 494 109 
L 494 744 
Q 775 591 1075 516 
Q 1375 441 1709 441 
Q 2250 441 2565 725 
Q 2881 1009 2881 1497 
Q 2881 1984 2565 2268 
Q 2250 2553 1709 2553 
Q 1456 2553 1204 2497 
Q 953 2441 691 2322 
L 691 4666 
z
" transform="scale(0.015625)"/>
     </defs>
     <use xlink:href="#DejaVuSans-34"/>
     <use xlink:href="#DejaVuSans-35" x="63.623047"/>
     <use xlink:href="#DejaVuSans-b0" x="127.246094"/>
    </g>
   </g>
   <g id="text_3">
    <!-- 45° -->
    <g transform="translate(25.925455 20.801646)scale(0.09 -0.09)">
     <use xlink:href="#DejaVuSans-34"/>
     <use xlink:href="#DejaVuSans-35" x="63.623047"/>
     <use xlink:href="#DejaVuSans-b0" x="127.246094"/>
    </g>
   </g>
   <g id="text_4">
    <!-- Plano: $k=0$, suma = 180° -->
    <g transform="translate(44.69 14.801646)scale(0.1 -0.1)">
     <defs>
      <path id="DejaVuSans-50" d="M 1259 4147 
L 1259 2394 
L 2053 2394 
Q 2494 2394 2734 2622 
Q 2975 2850 2975 3272 
Q 2975 3691 2734 3919 
Q 2494 4147 2053 4147 
L 1259 4147 
z
M 628 4666 
L 2053 4666 
Q 2838 4666 3239 4311 
Q 3641 3956 3641 3272 
Q 3641 2581 3239 2228 
Q 2838 1875 2053 1875 
L 1259 1875 
L 1259 0 
L 628 0 
L 628 4666 
z
" transform="scale(0.015625)"/>
      <path id="DejaVuSans-6c" d="M 603 4863 
L 1178 4863 
L 1178 0 
L 603 0 
L 603 4863 
z
" transform="scale(0.015625)"/>
      <path id="DejaVuSans-61" d="M 2194 1759 
Q 1497 1759 1228 1600 
Q 959 1441 959 1056 
Q 959 750 1161 570 
Q 1363 391 1709 391 
Q 2188 391 2477 730 
Q 2766 1069 2766 1631 
L 2766 1759 
L 2194 1759 
z
M 3341 1997 
L 3341 0 
L 2766 0 
L 2766 531 
Q 2569 213 2275 61 
Q 1981 -91 1556 -91 
Q 1019 -91 701 211 
Q 384 513 384 1019 
Q 384 1609 779 1909 
Q 1175 2209 1959 2209 
L 2766 2209 
L 2766 2266 
Q 2766 2663 2505 2880 
Q 2244 3097 1772 3097 
Q 1472 3097 1187 3025 
Q 903 2953 641 2809 
L 641 3341 
Q 956 3463 1253 3523 
Q 1550 3584 1831 3584 
Q 2591 3584 2966 3190 
Q 3341 2797 3341 1997 
z
" transform="scale(0.015625)"/>
      <path id="DejaVuSans-6e" d="M 3513 2113 
L 3513 0 
L 2938 0 
L 2938 2094 
Q 2938 2591 2744 2837 
Q 2550 3084 2163 3084 
Q 1697 3084 1428 2787 
Q 1159 2491 1159 1978 
L 1159 0 
L 581 0 
L 581 3500 
L 1159 3500 
L 1159 2956 
Q 1366 3272 1645 3428 
Q 1925 3584 2291 3584 
Q 2894 3584 3203 3211 
Q 3513 2838 3513 2113 
z
" transform="scale(0.015625)"/>
      <path id="DejaVuSans-6f" d="M 1959 3097 
Q 1497 3097 1228 2736 
Q 959 2375 959 1747 
Q 959 1119 1226 758 
Q 1494 397 1959 397 
Q 2419 397 2687 759 
Q 2956 1122 2956 1747 
Q 2956 2369 2687 2733 
Q 2419 3097 1959 3097 
z
M 1959 3584 
Q 2709 3584 3137 3096 
Q 3566 2609 3566 1747 
Q 3566 888 3137 398 
Q 2709 -91 1959 -91 
Q 1206 -91 779 398 
Q 353 888 353 1747 
Q 353 2609 779 3096 
Q 1206 3584 1959 3584 
z
" transform="scale(0.015625)"/>
      <path id="DejaVuSans-3a" d="M 750 794 
L 1409 794 
L 1409 0 
L 750 0 
L 750 794 
z
M 750 3309 
L 1409 3309 
L 1409 2516 
L 750 2516 
L 750 3309 
z
" transform="scale(0.015625)"/>
      <path id="DejaVuSans-20" transform="scale(0.015625)"/>
      <path id="DejaVuSans-Oblique-6b" d="M 1172 4863 
L 1747 4863 
L 1197 2028 
L 3169 3500 
L 3916 3500 
L 1716 1825 
L 3322 0 
L 2625 0 
L 1131 1709 
L 800 0 
L 225 0 
L 1172 4863 
z
" transform="scale(0.015625)"/>
      <path id="DejaVuSans-3d" d="M 678 2906 
L 4684 2906 
L 4684 2381 
L 678 2381 
L 678 2906 
z
M 678 1631 
L 4684 1631 
L 4684 1100 
L 678 1100 
L 678 1631 
z
" transform="scale(0.015625)"/>
      <path id="DejaVuSans-2c" d="M 750 794 
L 1409 794 
L 1409 256 
L 897 -744 
L 494 -744 
L 750 256 
L 750 794 
z
" transform="scale(0.015625)"/>
      <path id="DejaVuSans-73" d="M 2834 3397 
L 2834 2853 
Q 2591 2978 2328 3040 
Q 2066 3103 1784 3103 
Q 1356 3103 1142 2972 
Q 928 2841 928 2578 
Q 928 2378 1081 2264 
Q 1234 2150 1697 2047 
L 1894 2003 
Q 2506 1872 2764 1633 
Q 3022 1394 3022 966 
Q 3022 478 2636 193 
Q 2250 -91 1575 -91 
Q 1294 -91 989 -36 
Q 684 19 347 128 
L 347 722 
Q 666 556 975 473 
Q 1284 391 1588 391 
Q 1994 391 2212 530 
Q 2431 669 2431 922 
Q 2431 1156 2273 1281 
Q 2116 1406 1581 1522 
L 1381 1569 
Q 847 1681 609 1914 
Q 372 2147 372 2553 
Q 372 3047 722 3315 
Q 1072 3584 1716 3584 
Q 2034 3584 2315 3537 
Q 2597 3491 2834 3397 
z
" transform="scale(0.015625)"/>
      <path id="DejaVuSans-75" d="M 544 1381 
L 544 3500 
L 1119 3500 
L 1119 1403 
Q 1119 906 1312 657 
Q 1506 409 1894 409 
Q 2359 409 2629 706 
Q 2900 1003 2900 1516 
L 2900 3500 
L 3475 3500 
L 3475 0 
L 2900 0 
L 2900 538 
Q 2691 219 2414 64 
Q 2138 -91 1772 -91 
Q 1169 -91 856 284 
Q 544 659 544 1381 
z
M 1991 3584 
L 1991 3584 
z
" transform="scale(0.015625)"/>
      <path id="DejaVuSans-6d" d="M 3328 2828 
Q 3544 3216 3844 3400 
Q 4144 3584 4550 3584 
Q 5097 3584 5394 3201 
Q 5691 2819 5691 2113 
L 5691 0 
L 5113 0 
L 5113 2094 
Q 5113 2597 4934 2840 
Q 4756 3084 4391 3084 
Q 3944 3084 3684 2787 
Q 3425 2491 3425 1978 
L 3425 0 
L 2847 0 
L 2847 2094 
Q 2847 2600 2669 2842 
Q 2491 3084 2119 3084 
Q 1678 3084 1418 2786 
Q 1159 2488 1159 1978 
L 1159 0 
L 581 0 
L 581 3500 
L 1159 3500 
L 1159 2956 
Q 1356 3278 1631 3431 
Q 1906 3584 2284 3584 
Q 2666 3584 2933 3390 
Q 3200 3197 3328 2828 
z
" transform="scale(0.015625)"/>
      <path id="DejaVuSans-31" d="M 794 531 
L 1825 531 
L 1825 4091 
L 703 3866 
L 703 4441 
L 1819 4666 
L 2450 4666 
L 2450 531 
L 3481 531 
L 3481 0 
L 794 0 
L 794 531 
z
" transform="scale(0.015625)"/>
      <path id="DejaVuSans-38" d="M 2034 2216 
Q 1584 2216 1326 1975 
Q 1069 1734 1069 1313 
Q 1069 891 1326 650 
Q 1584 409 2034 409 
Q 2484 409 2743 651 
Q 3003 894 3003 1313 
Q 3003 1734 2745 1975 
Q 2488 2216 2034 2216 
z
M 1403 2484 
Q 997 2584 770 2862 
Q 544 3141 544 3541 
Q 544 4100 942 4425 
Q 1341 4750 2034 4750 
Q 2731 4750 3128 4425 
Q 3525 4100 3525 3541 
Q 3525 3141 3298 2862 
Q 3072 2584 2669 2484 
Q 3125 2378 3379 2068 
Q 3634 1759 3634 1313 
Q 3634 634 3220 271 
Q 2806 -91 2034 -91 
Q 1263 -91 848 271 
Q 434 634 434 1313 
Q 434 1759 690 2068 
Q 947 2378 1403 2484 
z
M 1172 3481 
Q 1172 3119 1398 2916 
Q 1625 2713 2034 2713 
Q 2441 2713 2670 2916 
Q 2900 3119 2900 3481 
Q 2900 3844 2670 4047 
Q 2441 4250 2034 4250 
Q 1625 4250 1398 4047 
Q 1172 3844 1172 3481 
z
" transform="scale(0.015625)"/>
     </defs>
     <use xlink:href="#DejaVuSans-50" transform="translate(0 0.015625)"/>
     <use xlink:href="#DejaVuSans-6c" transform="translate(60.302734 0.015625)"/>
     <use xlink:href="#DejaVuSans-61" transform="translate(88.085938 0.015625)"/>
     <use xlink:href="#DejaVuSans-6e" transform="translate(149.365234 0.015625)"/>
     <use xlink:href="#DejaVuSans-6f" transform="translate(212.744141 0.015625)"/>
     <use xlink:href="#DejaVuSans-3a" transform="translate(273.925781 0.015625)"/>
     <use xlink:href="#DejaVuSans-20" transform="translate(307.617188 0.015625)"/>
     <use xlink:href="#DejaVuSans-Oblique-6b" transform="translate(339.404297 0.015625)"/>
     <use xlink:href="#DejaVuSans-3d" transform="translate(416.796875 0.015625)"/>
     <use xlink:href="#DejaVuSans-30" transform="translate(520.068359 0.015625)"/>
     <use xlink:href="#DejaVuSans-2c" transform="translate(583.691406 0.015625)"/>
     <use xlink:href="#DejaVuSans-20" transform="translate(615.478516 0.015625)"/>
     <use xlink:href="#DejaVuSans-73" transform="translate(647.265625 0.015625)"/>
     <use xlink:href="#DejaVuSans-75" transform="translate(699.365234 0.015625)"/>
     <use xlink:href="#DejaVuSans-6d" transform="translate(762.744141 0.015625)"/>
     <use xlink:href="#DejaVuSans-61" transform="translate(860.15625 0.015625)"/>
     <use xlink:href="#DejaVuSans-20" transform="translate(921.435547 0.015625)"/>
     <use xlink:href="#DejaVuSans-3d" transform="translate(953.222656 0.015625)"/>
     <use xlink:href="#DejaVuSans-20" transform="translate(1037.011719 0.015625)"/>
     <use xlink:href="#DejaVuSans-31" transform="translate(1068.798828 0.015625)"/>
     <use xlink:href="#DejaVuSans-38" transform="translate(1132.421875 0.015625)"/>
     <use xlink:href="#DejaVuSans-30" transform="translate(1196.044922 0.015625)"/>
     <use xlink:href="#DejaVuSans-b0" transform="translate(1259.667969 0.015625)"/>
    </g>
   </g>
  </g>
  <g id="axes_2">
   <g id="patch_3">
    <path d="M 293.593337 158.512561 
L 295.735652 159.066942 
L 297.911136 159.596322 
L 300.118248 160.100323 
L 302.355423 160.57859 
L 304.621076 161.030783 
L 306.913602 161.456582 
L 309.231374 161.855685 
L 311.57275 162.227809 
L 313.936072 162.57269 
L 316.319663 162.890084 
L 318.721834 163.179766 
L 321.140883 163.441531 
L 323.575095 163.675192 
L 326.022744 163.880585 
L 328.482097 164.057564 
L 330.95141 164.206003 
L 333.428932 164.325798 
L 335.912907 164.416862 
L 338.401576 164.479133 
L 340.893174 164.512565 
L 343.385935 164.517135 
L 345.878092 164.49284 
L 348.367879 164.439696 
L 350.853531 164.357743 
L 353.333287 164.247036 
L 355.805388 164.107656 
L 358.268083 163.939701 
L 360.719626 163.74329 
L 363.15828 163.518562 
L 365.582316 163.265676 
L 367.990016 162.984812 
L 370.379673 162.676169 
L 372.749594 162.339966 
L 375.0981 161.97644 
L 377.423524 161.58585 
L 379.72422 161.168471 
L 381.998556 160.724602 
L 384.244921 160.254554 
L 386.461722 159.758663 
L 388.647388 159.237279 
L 390.80037 158.690772 
L 392.919142 158.11953 
L 395.002202 157.523956 
L 397.048075 156.904474 
L 399.055309 156.261522 
L 401.022482 155.595556 
L 402.948199 154.907048 
L 404.831097 154.196487 
L 406.66984 153.464375 
L 408.463125 152.711232 
L 410.209681 151.937591 
L 411.90827 151.144001 
L 413.557689 150.331024 
L 415.156767 149.499237 
L 416.704372 148.649229 
L 418.199407 147.781602 
L 419.640813 146.896972 
L 421.027566 145.995965 
L 422.358686 145.07922 
L 422.358686 145.07922 
L 422.330397 142.827255 
L 422.24555 140.561799 
L 422.104206 138.284456 
L 421.906464 135.996841 
L 421.652465 133.700576 
L 421.342388 131.397287 
L 420.976454 129.088607 
L 420.554922 126.776173 
L 420.078091 124.461624 
L 419.546298 122.146599 
L 418.95992 119.832741 
L 418.319374 117.521689 
L 417.625113 115.215081 
L 416.877629 112.914551 
L 416.077452 110.621731 
L 415.225149 108.338246 
L 414.321325 106.065714 
L 413.366619 103.805745 
L 412.361709 101.559942 
L 411.307307 99.329896 
L 410.204159 97.117188 
L 409.053049 94.923387 
L 407.854792 92.750046 
L 406.610237 90.598708 
L 405.320266 88.470895 
L 403.985794 86.368118 
L 402.607766 84.291865 
L 401.18716 82.243608 
L 399.724981 80.224801 
L 398.222267 78.236872 
L 396.680083 76.281231 
L 395.099521 74.359265 
L 393.481701 72.472336 
L 391.827772 70.62178 
L 390.138904 68.80891 
L 388.416295 67.03501 
L 386.661166 65.301339 
L 384.87476 63.609124 
L 383.058345 61.959565 
L 381.213207 60.353831 
L 379.340654 58.793061 
L 377.442013 57.27836 
L 375.51863 55.810802 
L 373.571869 54.391428 
L 371.603109 53.021243 
L 369.613746 51.701218 
L 367.605189 50.432289 
L 365.578862 49.215356 
L 363.536202 48.051281 
L 361.478656 46.940889 
L 359.407683 45.884967 
L 357.32475 44.884264 
L 355.231333 43.939489 
L 353.128918 43.051311 
L 351.018993 42.220359 
L 348.903054 41.447224 
L 346.782601 40.732453 
L 344.659136 40.076552 
L 342.534166 39.479987 
L 342.534166 39.479987 
L 341.231336 40.434155 
L 339.929429 41.447404 
L 338.629368 42.519018 
L 337.332075 43.648236 
L 336.038469 44.834258 
L 334.749467 46.076243 
L 333.465982 47.373311 
L 332.188925 48.724542 
L 330.919201 50.12898 
L 329.657709 51.585628 
L 328.405343 53.093454 
L 327.162992 54.651389 
L 325.931535 56.258329 
L 324.711846 57.913136 
L 323.504789 59.614635 
L 322.311219 61.361622 
L 321.131983 63.152858 
L 319.967917 64.987073 
L 318.819845 66.862968 
L 317.688581 68.779213 
L 316.574927 70.734449 
L 315.479673 72.727291 
L 314.403594 74.756326 
L 313.347453 76.820116 
L 312.312 78.917199 
L 311.297967 81.046087 
L 310.306073 83.205273 
L 309.337023 85.393225 
L 308.391501 87.608394 
L 307.470179 89.849208 
L 306.57371 92.11408 
L 305.702729 94.401404 
L 304.857853 96.70956 
L 304.039681 99.03691 
L 303.248793 101.381807 
L 302.48575 103.742587 
L 301.751092 106.117577 
L 301.04534 108.505094 
L 300.368995 110.903446 
L 299.722536 113.310933 
L 299.10642 115.725848 
L 298.521085 118.14648 
L 297.966945 120.571113 
L 297.444394 122.998029 
L 296.953802 125.425508 
L 296.495515 127.851828 
L 296.06986 130.275271 
L 295.677138 132.694118 
L 295.317627 135.106655 
L 294.991582 137.511173 
L 294.699234 139.905966 
L 294.44079 142.289338 
L 294.216434 144.659599 
L 294.026325 147.01507 
L 293.870597 149.35408 
L 293.74936 151.674972 
L 293.662701 153.976101 
L 293.610681 156.255836 
L 293.593337 158.512561 
z
" clip-path="url(#p93c69012a7)" style="fill: #d1495b; opacity: 0.15; stroke: #d1495b; stroke-linejoin: miter"/>
   </g>
   <g id="line2d_2">
    <path d="M 436.167273 123.791646 
L 435.980648 117.88287 
L 435.421519 111.997648 
L 434.492113 106.15944 
L 433.196136 100.391519 
L 431.538753 94.716878 
L 429.526572 89.158138 
L 427.167614 83.737457 
L 424.471283 78.476443 
L 421.448325 73.39607 
L 418.110793 68.516588 
L 414.471991 63.857448 
L 410.546422 59.437224 
L 406.349738 55.273535 
L 401.898665 51.38298 
L 397.210949 47.781067 
L 392.305274 44.482154 
L 387.201197 41.499393 
L 381.919065 38.844672 
L 376.479933 36.528575 
L 370.905483 34.560334 
L 365.217936 32.947795 
L 359.439965 31.697387 
L 353.594603 30.814093 
L 347.705151 30.301435 
L 341.795086 30.161456 
L 335.887967 30.394715 
L 330.007341 31.000282 
L 324.176651 31.975742 
L 318.41914 33.317207 
L 312.757758 35.01933 
L 307.215074 37.075325 
L 301.813182 39.476997 
L 296.573615 42.214772 
L 291.517261 45.277736 
L 286.664276 48.65368 
L 282.034004 52.329145 
L 277.644903 56.289482 
L 273.51447 60.518901 
L 269.65917 65.000545 
L 266.094371 69.716546 
L 262.834284 74.648108 
L 259.891903 79.775569 
L 257.278959 85.078492 
L 255.005867 90.535737 
L 253.081689 96.125549 
L 251.514094 101.825647 
L 250.309332 107.613307 
L 249.472206 113.465459 
L 249.006051 119.358775 
L 248.912727 125.269761 
L 249.192606 131.174855 
L 249.844571 137.050517 
L 250.866025 142.873326 
L 252.252894 148.620069 
L 253.999651 154.267839 
L 256.099333 159.794122 
L 258.543569 165.176888 
L 261.322617 170.394681 
L 264.425397 175.426701 
L 267.839542 180.252888 
L 271.551442 184.854003 
L 275.546299 189.211707 
L 279.80819 193.308627 
L 284.320125 197.128431 
L 289.064119 200.655894 
L 294.021259 203.876954 
L 299.171786 206.778769 
L 304.495169 209.349774 
L 309.970186 211.579719 
L 315.575012 213.459715 
L 321.287306 214.982268 
L 327.084296 216.141308 
L 332.942873 216.932216 
L 338.839685 217.351838 
L 344.751223 217.398501 
L 350.653924 217.07202 
L 356.524257 216.373696 
L 362.338822 215.306313 
L 368.074439 213.874126 
L 373.708245 212.082843 
L 379.217782 209.939606 
L 384.581088 207.452957 
L 389.776782 204.632811 
L 394.784153 201.490407 
L 399.583241 198.038274 
L 404.154914 194.290172 
L 408.480949 190.261041 
L 412.5441 185.966945 
L 416.328172 181.424999 
L 419.818078 176.65331 
L 422.999909 171.670899 
L 425.860979 166.497627 
L 428.389885 161.154117 
L 430.576544 155.661669 
L 432.412241 150.042177 
L 433.889657 144.318043 
L 435.002903 138.512085 
L 435.747542 132.647447 
L 436.120605 126.747507 
L 436.167273 123.791646 
L 436.167273 123.791646 
" clip-path="url(#p93c69012a7)" style="fill: none; stroke: #999999; stroke-width: 1.2; stroke-linecap: square"/>
   </g>
   <g id="line2d_3">
    <path d="M 293.593337 158.512561 
L 295.735652 159.066942 
L 297.911136 159.596322 
L 300.118248 160.100323 
L 302.355423 160.57859 
L 304.621076 161.030783 
L 306.913602 161.456582 
L 309.231374 161.855685 
L 311.57275 162.227809 
L 313.936072 162.57269 
L 316.319663 162.890084 
L 318.721834 163.179766 
L 321.140883 163.441531 
L 323.575095 163.675192 
L 326.022744 163.880585 
L 328.482097 164.057564 
L 330.95141 164.206003 
L 333.428932 164.325798 
L 335.912907 164.416862 
L 338.401576 164.479133 
L 340.893174 164.512565 
L 343.385935 164.517135 
L 345.878092 164.49284 
L 348.367879 164.439696 
L 350.853531 164.357743 
L 353.333287 164.247036 
L 355.805388 164.107656 
L 358.268083 163.939701 
L 360.719626 163.74329 
L 363.15828 163.518562 
L 365.582316 163.265676 
L 367.990016 162.984812 
L 370.379673 162.676169 
L 372.749594 162.339966 
L 375.0981 161.97644 
L 377.423524 161.58585 
L 379.72422 161.168471 
L 381.998556 160.724602 
L 384.244921 160.254554 
L 386.461722 159.758663 
L 388.647388 159.237279 
L 390.80037 158.690772 
L 392.919142 158.11953 
L 395.002202 157.523956 
L 397.048075 156.904474 
L 399.055309 156.261522 
L 401.022482 155.595556 
L 402.948199 154.907048 
L 404.831097 154.196487 
L 406.66984 153.464375 
L 408.463125 152.711232 
L 410.209681 151.937591 
L 411.90827 151.144001 
L 413.557689 150.331024 
L 415.156767 149.499237 
L 416.704372 148.649229 
L 418.199407 147.781602 
L 419.640813 146.896972 
L 421.027566 145.995965 
L 422.358686 145.07922 
" clip-path="url(#p93c69012a7)" style="fill: none; stroke: #d1495b; stroke-width: 2.2; stroke-linecap: square"/>
   </g>
   <g id="line2d_4">
    <path d="M 422.358686 145.07922 
L 422.330397 142.827255 
L 422.24555 140.561799 
L 422.104206 138.284456 
L 421.906464 135.996841 
L 421.652465 133.700576 
L 421.342388 131.397287 
L 420.976454 129.088607 
L 420.554922 126.776173 
L 420.078091 124.461624 
L 419.546298 122.146599 
L 418.95992 119.832741 
L 418.319374 117.521689 
L 417.625113 115.215081 
L 416.877629 112.914551 
L 416.077452 110.621731 
L 415.225149 108.338246 
L 414.321325 106.065714 
L 413.366619 103.805745 
L 412.361709 101.559942 
L 411.307307 99.329896 
L 410.204159 97.117188 
L 409.053049 94.923387 
L 407.854792 92.750046 
L 406.610237 90.598708 
L 405.320266 88.470895 
L 403.985794 86.368118 
L 402.607766 84.291865 
L 401.18716 82.243608 
L 399.724981 80.224801 
L 398.222267 78.236872 
L 396.680083 76.281231 
L 395.099521 74.359265 
L 393.481701 72.472336 
L 391.827772 70.62178 
L 390.138904 68.80891 
L 388.416295 67.03501 
L 386.661166 65.301339 
L 384.87476 63.609124 
L 383.058345 61.959565 
L 381.213207 60.353831 
L 379.340654 58.793061 
L 377.442013 57.27836 
L 375.51863 55.810802 
L 373.571869 54.391428 
L 371.603109 53.021243 
L 369.613746 51.701218 
L 367.605189 50.432289 
L 365.578862 49.215356 
L 363.536202 48.051281 
L 361.478656 46.940889 
L 359.407683 45.884967 
L 357.32475 44.884264 
L 355.231333 43.939489 
L 353.128918 43.051311 
L 351.018993 42.220359 
L 348.903054 41.447224 
L 346.782601 40.732453 
L 344.659136 40.076552 
L 342.534166 39.479987 
" clip-path="url(#p93c69012a7)" style="fill: none; stroke: #d1495b; stroke-width: 2.2; stroke-linecap: square"/>
   </g>
   <g id="line2d_5">
    <path d="M 342.534166 39.479987 
L 341.231336 40.434155 
L 339.929429 41.447404 
L 338.629368 42.519018 
L 337.332075 43.648236 
L 336.038469 44.834258 
L 334.749467 46.076243 
L 333.465982 47.373311 
L 332.188925 48.724542 
L 330.919201 50.12898 
L 329.657709 51.585628 
L 328.405343 53.093454 
L 327.162992 54.651389 
L 325.931535 56.258329 
L 324.711846 57.913136 
L 323.504789 59.614635 
L 322.311219 61.361622 
L 321.131983 63.152858 
L 319.967917 64.987073 
L 318.819845 66.862968 
L 317.688581 68.779213 
L 316.574927 70.734449 
L 315.479673 72.727291 
L 314.403594 74.756326 
L 313.347453 76.820116 
L 312.312 78.917199 
L 311.297967 81.046087 
L 310.306073 83.205273 
L 309.337023 85.393225 
L 308.391501 87.608394 
L 307.470179 89.849208 
L 306.57371 92.11408 
L 305.702729 94.401404 
L 304.857853 96.70956 
L 304.039681 99.03691 
L 303.248793 101.381807 
L 302.48575 103.742587 
L 301.751092 106.117577 
L 301.04534 108.505094 
L 300.368995 110.903446 
L 299.722536 113.310933 
L 299.10642 115.725848 
L 298.521085 118.14648 
L 297.966945 120.571113 
L 297.444394 122.998029 
L 296.953802 125.425508 
L 296.495515 127.851828 
L 296.06986 130.275271 
L 295.677138 132.694118 
L 295.317627 135.106655 
L 294.991582 137.511173 
L 294.699234 139.905966 
L 294.44079 142.289338 
L 294.216434 144.659599 
L 294.026325 147.01507 
L 293.870597 149.35408 
L 293.74936 151.674972 
L 293.662701 153.976101 
L 293.610681 156.255836 
L 293.593337 158.512561 
" clip-path="url(#p93c69012a7)" style="fill: none; stroke: #d1495b; stroke-width: 2.2; stroke-linecap: square"/>
   </g>
   <g id="text_5">
    <!-- 90° -->
    <g transform="translate(298.274992 151.021912)scale(0.09 -0.09)">
     <use xlink:href="#DejaVuSans-39"/>
     <use xlink:href="#DejaVuSans-30" x="63.623047"/>
     <use xlink:href="#DejaVuSans-b0" x="127.246094"/>
    </g>
   </g>
   <g id="text_6">
    <!-- 90° -->
    <g transform="translate(427.040341 137.588571)scale(0.09 -0.09)">
     <use xlink:href="#DejaVuSans-39"/>
     <use xlink:href="#DejaVuSans-30" x="63.623047"/>
     <use xlink:href="#DejaVuSans-b0" x="127.246094"/>
    </g>
   </g>
   <g id="text_7">
    <!-- 90° -->
    <g transform="translate(347.215821 31.989338)scale(0.09 -0.09)">
     <use xlink:href="#DejaVuSans-39"/>
     <use xlink:href="#DejaVuSans-30" x="63.623047"/>
     <use xlink:href="#DejaVuSans-b0" x="127.246094"/>
    </g>
   </g>
   <g id="text_8">
    <!-- Esfera: $k=+1$, suma = 270° -->
    <g transform="translate(268.89 14.798437)scale(0.1 -0.1)">
     <defs>
      <path id="DejaVuSans-45" d="M 628 4666 
L 3578 4666 
L 3578 4134 
L 1259 4134 
L 1259 2753 
L 3481 2753 
L 3481 2222 
L 1259 2222 
L 1259 531 
L 3634 531 
L 3634 0 
L 628 0 
L 628 4666 
z
" transform="scale(0.015625)"/>
      <path id="DejaVuSans-66" d="M 2375 4863 
L 2375 4384 
L 1825 4384 
Q 1516 4384 1395 4259 
Q 1275 4134 1275 3809 
L 1275 3500 
L 2222 3500 
L 2222 3053 
L 1275 3053 
L 1275 0 
L 697 0 
L 697 3053 
L 147 3053 
L 147 3500 
L 697 3500 
L 697 3744 
Q 697 4328 969 4595 
Q 1241 4863 1831 4863 
L 2375 4863 
z
" transform="scale(0.015625)"/>
      <path id="DejaVuSans-65" d="M 3597 1894 
L 3597 1613 
L 953 1613 
Q 991 1019 1311 708 
Q 1631 397 2203 397 
Q 2534 397 2845 478 
Q 3156 559 3463 722 
L 3463 178 
Q 3153 47 2828 -22 
Q 2503 -91 2169 -91 
Q 1331 -91 842 396 
Q 353 884 353 1716 
Q 353 2575 817 3079 
Q 1281 3584 2069 3584 
Q 2775 3584 3186 3129 
Q 3597 2675 3597 1894 
z
M 3022 2063 
Q 3016 2534 2758 2815 
Q 2500 3097 2075 3097 
Q 1594 3097 1305 2825 
Q 1016 2553 972 2059 
L 3022 2063 
z
" transform="scale(0.015625)"/>
      <path id="DejaVuSans-72" d="M 2631 2963 
Q 2534 3019 2420 3045 
Q 2306 3072 2169 3072 
Q 1681 3072 1420 2755 
Q 1159 2438 1159 1844 
L 1159 0 
L 581 0 
L 581 3500 
L 1159 3500 
L 1159 2956 
Q 1341 3275 1631 3429 
Q 1922 3584 2338 3584 
Q 2397 3584 2469 3576 
Q 2541 3569 2628 3553 
L 2631 2963 
z
" transform="scale(0.015625)"/>
      <path id="DejaVuSans-2b" d="M 2944 4013 
L 2944 2272 
L 4684 2272 
L 4684 1741 
L 2944 1741 
L 2944 0 
L 2419 0 
L 2419 1741 
L 678 1741 
L 678 2272 
L 2419 2272 
L 2419 4013 
L 2944 4013 
z
" transform="scale(0.015625)"/>
      <path id="DejaVuSans-32" d="M 1228 531 
L 3431 531 
L 3431 0 
L 469 0 
L 469 531 
Q 828 903 1448 1529 
Q 2069 2156 2228 2338 
Q 2531 2678 2651 2914 
Q 2772 3150 2772 3378 
Q 2772 3750 2511 3984 
Q 2250 4219 1831 4219 
Q 1534 4219 1204 4116 
Q 875 4013 500 3803 
L 500 4441 
Q 881 4594 1212 4672 
Q 1544 4750 1819 4750 
Q 2544 4750 2975 4387 
Q 3406 4025 3406 3419 
Q 3406 3131 3298 2873 
Q 3191 2616 2906 2266 
Q 2828 2175 2409 1742 
Q 1991 1309 1228 531 
z
" transform="scale(0.015625)"/>
      <path id="DejaVuSans-37" d="M 525 4666 
L 3525 4666 
L 3525 4397 
L 1831 0 
L 1172 0 
L 2766 4134 
L 525 4134 
L 525 4666 
z
" transform="scale(0.015625)"/>
     </defs>
     <use xlink:href="#DejaVuSans-45" transform="translate(0 0.015625)"/>
     <use xlink:href="#DejaVuSans-73" transform="translate(63.183594 0.015625)"/>
     <use xlink:href="#DejaVuSans-66" transform="translate(115.283203 0.015625)"/>
     <use xlink:href="#DejaVuSans-65" transform="translate(150.488281 0.015625)"/>
     <use xlink:href="#DejaVuSans-72" transform="translate(212.011719 0.015625)"/>
     <use xlink:href="#DejaVuSans-61" transform="translate(253.125 0.015625)"/>
     <use xlink:href="#DejaVuSans-3a" transform="translate(314.404297 0.015625)"/>
     <use xlink:href="#DejaVuSans-20" transform="translate(348.095703 0.015625)"/>
     <use xlink:href="#DejaVuSans-Oblique-6b" transform="translate(379.882812 0.015625)"/>
     <use xlink:href="#DejaVuSans-3d" transform="translate(457.275391 0.015625)"/>
     <use xlink:href="#DejaVuSans-2b" transform="translate(580.029297 0.015625)"/>
     <use xlink:href="#DejaVuSans-31" transform="translate(683.300781 0.015625)"/>
     <use xlink:href="#DejaVuSans-2c" transform="translate(746.923828 0.015625)"/>
     <use xlink:href="#DejaVuSans-20" transform="translate(778.710938 0.015625)"/>
     <use xlink:href="#DejaVuSans-73" transform="translate(810.498047 0.015625)"/>
     <use xlink:href="#DejaVuSans-75" transform="translate(862.597656 0.015625)"/>
     <use xlink:href="#DejaVuSans-6d" transform="translate(925.976562 0.015625)"/>
     <use xlink:href="#DejaVuSans-61" transform="translate(1023.388672 0.015625)"/>
     <use xlink:href="#DejaVuSans-20" transform="translate(1084.667969 0.015625)"/>
     <use xlink:href="#DejaVuSans-3d" transform="translate(1116.455078 0.015625)"/>
     <use xlink:href="#DejaVuSans-20" transform="translate(1200.244141 0.015625)"/>
     <use xlink:href="#DejaVuSans-32" transform="translate(1232.03125 0.015625)"/>
     <use xlink:href="#DejaVuSans-37" transform="translate(1295.654297 0.015625)"/>
     <use xlink:href="#DejaVuSans-30" transform="translate(1359.277344 0.015625)"/>
     <use xlink:href="#DejaVuSans-b0" transform="translate(1422.900391 0.015625)"/>
    </g>
   </g>
  </g>
  <g id="axes_3">
   <g id="patch_4">
    <path d="M 574.89 213.348168 
C 598.640667 213.348168 621.421766 203.911928 638.216024 187.11767 
C 655.010282 170.323412 664.446522 147.542313 664.446522 123.791646 
C 664.446522 100.040979 655.010282 77.25988 638.216024 60.465622 
C 621.421766 43.671364 598.640667 34.235124 574.89 34.235124 
C 551.139333 34.235124 528.358234 43.671364 511.563976 60.465622 
C 494.769718 77.25988 485.333478 100.040979 485.333478 123.791646 
C 485.333478 147.542313 494.769718 170.323412 511.563976 187.11767 
C 528.358234 203.911928 551.139333 213.348168 574.89 213.348168 
L 574.89 213.348168 
z
" clip-path="url(#pd7179e2219)" style="fill: none; stroke: #999999; stroke-width: 1.2; stroke-linejoin: miter"/>
   </g>
   <g id="patch_5">
    <path d="M 574.89 43.190776 
L 574.811706 44.4044 
L 574.72397 45.617377 
L 574.626796 46.829635 
L 574.520191 48.0411 
L 574.40416 49.251698 
L 574.278712 50.461357 
L 574.143853 51.670003 
L 573.999591 52.877563 
L 573.845937 54.083963 
L 573.682898 55.289131 
L 573.510484 56.492994 
L 573.328707 57.695478 
L 573.137577 58.896512 
L 572.937105 60.096021 
L 572.727305 61.293934 
L 572.508187 62.490178 
L 572.279767 63.68468 
L 572.042057 64.877369 
L 571.795073 66.068171 
L 571.538828 67.257015 
L 571.273339 68.443829 
L 570.998621 69.628541 
L 570.714692 70.811079 
L 570.421568 71.991371 
L 570.119267 73.169346 
L 569.807808 74.344933 
L 569.487209 75.518061 
L 569.15749 76.688658 
L 568.81867 77.856653 
L 568.470771 79.021976 
L 568.113814 80.184556 
L 567.747819 81.344323 
L 567.372809 82.501207 
L 566.988807 83.655137 
L 566.595836 84.806043 
L 566.19392 85.953857 
L 565.783084 87.098507 
L 565.363351 88.239926 
L 564.934748 89.378043 
L 564.497301 90.512791 
L 564.051036 91.644099 
L 563.595979 92.7719 
L 563.13216 93.896126 
L 562.659604 95.016707 
L 562.178343 96.133577 
L 561.688403 97.246668 
L 561.189816 98.355912 
L 560.682611 99.461243 
L 560.16682 100.562592 
L 559.642472 101.659894 
L 559.109601 102.753082 
L 558.568238 103.84209 
L 558.018416 104.926851 
L 557.460168 106.007301 
L 556.893529 107.083373 
L 556.318532 108.155003 
L 555.735213 109.222126 
L 555.143607 110.284676 
L 554.543749 111.34259 
L 553.935675 112.395804 
L 553.319424 113.444253 
L 552.695032 114.487874 
L 552.062536 115.526605 
L 551.421976 116.560382 
L 550.77339 117.589142 
L 550.116816 118.612823 
L 549.452296 119.631364 
L 548.779869 120.644702 
L 548.099577 121.652776 
L 547.411459 122.655525 
L 546.715558 123.652888 
L 546.011917 124.644806 
L 545.300577 125.631217 
L 544.581581 126.612062 
L 543.854974 127.587282 
L 543.1208 128.556818 
L 542.379102 129.52061 
L 541.629925 130.478601 
L 540.873316 131.430733 
L 540.10932 132.376947 
L 539.337983 133.317186 
L 538.559352 134.251395 
L 537.773473 135.179515 
L 536.980396 136.101491 
L 536.180167 137.017267 
L 535.372835 137.926787 
L 534.55845 138.829997 
L 533.737059 139.726841 
L 532.908714 140.617266 
L 532.073464 141.501217 
L 531.23136 142.378641 
L 530.382453 143.249484 
L 529.526795 144.113695 
L 528.664436 144.97122 
L 527.79543 145.822008 
L 526.919829 146.666007 
L 526.037685 147.503166 
L 525.149054 148.333434 
L 524.253987 149.156761 
L 523.352541 149.973098 
L 522.444768 150.782394 
L 521.530724 151.584601 
L 520.610465 152.37967 
L 519.684046 153.167553 
L 518.751523 153.948202 
L 517.812953 154.72157 
L 516.868393 155.487611 
L 515.9179 156.246276 
L 514.961531 156.997522 
L 513.999344 157.741302 
L 513.031398 158.477571 
L 512.057751 159.206285 
L 511.078463 159.927399 
L 510.093592 160.64087 
L 509.103198 161.346655 
L 508.107341 162.04471 
L 507.106082 162.734994 
L 506.099481 163.417465 
L 505.087599 164.092081 
L 505.087599 164.092081 
L 506.177775 163.553073 
L 507.272112 163.022567 
L 508.370545 162.500593 
L 509.473007 161.987184 
L 510.579432 161.48237 
L 511.689751 160.986182 
L 512.803899 160.49865 
L 513.921807 160.019804 
L 515.043407 159.549673 
L 516.168633 159.088285 
L 517.297415 158.635668 
L 518.429686 158.191849 
L 519.565376 157.756856 
L 520.704418 157.330715 
L 521.846741 156.913451 
L 522.992277 156.50509 
L 524.140957 156.105657 
L 525.29271 155.715175 
L 526.447468 155.333669 
L 527.605159 154.961162 
L 528.765715 154.597675 
L 529.929064 154.243232 
L 531.095137 153.897853 
L 532.263862 153.561559 
L 533.435169 153.234372 
L 534.608987 152.91631 
L 535.785244 152.607393 
L 536.963871 152.30764 
L 538.144794 152.017068 
L 539.327943 151.735696 
L 540.513246 151.463541 
L 541.700631 151.200618 
L 542.890026 150.946944 
L 544.08136 150.702534 
L 545.274559 150.467404 
L 546.469553 150.241567 
L 547.666268 150.025036 
L 548.864631 149.817826 
L 550.064571 149.619948 
L 551.266015 149.431415 
L 552.46889 149.252238 
L 553.673122 149.082428 
L 554.87864 148.921995 
L 556.08537 148.770949 
L 557.293239 148.629299 
L 558.502173 148.497053 
L 559.7121 148.37422 
L 560.922947 148.260807 
L 562.134639 148.156821 
L 563.347104 148.062268 
L 564.560269 147.977155 
L 565.774058 147.901485 
L 566.9884 147.835264 
L 568.203221 147.778496 
L 569.418447 147.731183 
L 570.634004 147.69333 
L 571.849819 147.664938 
L 573.065817 147.646009 
L 574.281927 147.636545 
L 575.498073 147.636545 
L 576.714183 147.646009 
L 577.930181 147.664938 
L 579.145996 147.69333 
L 580.361553 147.731183 
L 581.576779 147.778496 
L 582.7916 147.835264 
L 584.005942 147.901485 
L 585.219731 147.977155 
L 586.432896 148.062268 
L 587.645361 148.156821 
L 588.857053 148.260807 
L 590.0679 148.37422 
L 591.277827 148.497053 
L 592.486761 148.629299 
L 593.69463 148.770949 
L 594.90136 148.921995 
L 596.106878 149.082428 
L 597.31111 149.252238 
L 598.513985 149.431415 
L 599.715429 149.619948 
L 600.915369 149.817826 
L 602.113732 150.025036 
L 603.310447 150.241567 
L 604.505441 150.467404 
L 605.69864 150.702534 
L 606.889974 150.946944 
L 608.079369 151.200618 
L 609.266754 151.463541 
L 610.452057 151.735696 
L 611.635206 152.017068 
L 612.816129 152.30764 
L 613.994756 152.607393 
L 615.171013 152.91631 
L 616.344831 153.234372 
L 617.516138 153.561559 
L 618.684863 153.897853 
L 619.850936 154.243232 
L 621.014285 154.597675 
L 622.174841 154.961162 
L 623.332532 155.333669 
L 624.48729 155.715175 
L 625.639043 156.105657 
L 626.787723 156.50509 
L 627.933259 156.913451 
L 629.075582 157.330715 
L 630.214624 157.756856 
L 631.350314 158.191849 
L 632.482585 158.635668 
L 633.611367 159.088285 
L 634.736593 159.549673 
L 635.858193 160.019804 
L 636.976101 160.49865 
L 638.090249 160.986182 
L 639.200568 161.48237 
L 640.306993 161.987184 
L 641.409455 162.500593 
L 642.507888 163.022567 
L 643.602225 163.553073 
L 644.692401 164.092081 
L 644.692401 164.092081 
L 643.680519 163.417465 
L 642.673918 162.734994 
L 641.672659 162.04471 
L 640.676802 161.346655 
L 639.686408 160.64087 
L 638.701537 159.927399 
L 637.722249 159.206285 
L 636.748602 158.477571 
L 635.780656 157.741302 
L 634.818469 156.997522 
L 633.8621 156.246276 
L 632.911607 155.487611 
L 631.967047 154.72157 
L 631.028477 153.948202 
L 630.095954 153.167553 
L 629.169535 152.37967 
L 628.249276 151.584601 
L 627.335232 150.782394 
L 626.427459 149.973098 
L 625.526013 149.156761 
L 624.630946 148.333434 
L 623.742315 147.503166 
L 622.860171 146.666007 
L 621.98457 145.822008 
L 621.115564 144.97122 
L 620.253205 144.113695 
L 619.397547 143.249484 
L 618.54864 142.378641 
L 617.706536 141.501217 
L 616.871286 140.617266 
L 616.042941 139.726841 
L 615.22155 138.829997 
L 614.407165 137.926787 
L 613.599833 137.017267 
L 612.799604 136.101491 
L 612.006527 135.179515 
L 611.220648 134.251395 
L 610.442017 133.317186 
L 609.67068 132.376947 
L 608.906684 131.430733 
L 608.150075 130.478601 
L 607.400898 129.52061 
L 606.6592 128.556818 
L 605.925026 127.587282 
L 605.198419 126.612062 
L 604.479423 125.631217 
L 603.768083 124.644806 
L 603.064442 123.652888 
L 602.368541 122.655525 
L 601.680423 121.652776 
L 601.000131 120.644702 
L 600.327704 119.631364 
L 599.663184 118.612823 
L 599.00661 117.589142 
L 598.358024 116.560382 
L 597.717464 115.526605 
L 597.084968 114.487874 
L 596.460576 113.444253 
L 595.844325 112.395804 
L 595.236251 111.34259 
L 594.636393 110.284676 
L 594.044787 109.222126 
L 593.461468 108.155003 
L 592.886471 107.083373 
L 592.319832 106.007301 
L 591.761584 104.926851 
L 591.211762 103.84209 
L 590.670399 102.753082 
L 590.137528 101.659894 
L 589.61318 100.562592 
L 589.097389 99.461243 
L 588.590184 98.355912 
L 588.091597 97.246668 
L 587.601657 96.133577 
L 587.120396 95.016707 
L 586.64784 93.896126 
L 586.184021 92.7719 
L 585.728964 91.644099 
L 585.282699 90.512791 
L 584.845252 89.378043 
L 584.416649 88.239926 
L 583.996916 87.098507 
L 583.58608 85.953857 
L 583.184164 84.806043 
L 582.791193 83.655137 
L 582.407191 82.501207 
L 582.032181 81.344323 
L 581.666186 80.184556 
L 581.309229 79.021976 
L 580.96133 77.856653 
L 580.62251 76.688658 
L 580.292791 75.518061 
L 579.972192 74.344933 
L 579.660733 73.169346 
L 579.358432 71.991371 
L 579.065308 70.811079 
L 578.781379 69.628541 
L 578.506661 68.443829 
L 578.241172 67.257015 
L 577.984927 66.068171 
L 577.737943 64.877369 
L 577.500233 63.68468 
L 577.271813 62.490178 
L 577.052695 61.293934 
L 576.842895 60.096021 
L 576.642423 58.896512 
L 576.451293 57.695478 
L 576.269516 56.492994 
L 576.097102 55.289131 
L 575.934063 54.083963 
L 575.780409 52.877563 
L 575.636147 51.670003 
L 575.501288 50.461357 
L 575.37584 49.251698 
L 575.259809 48.0411 
L 575.153204 46.829635 
L 575.05603 45.617377 
L 574.968294 44.4044 
L 574.89 43.190776 
z
" clip-path="url(#pd7179e2219)" style="fill: #7b85ff; opacity: 0.15; stroke: #7b85ff; stroke-linejoin: miter"/>
   </g>
   <g id="patch_6">
    <path d="M 655.49087 43.190776 
L 654.277246 44.4044 
L 653.064269 45.617377 
L 651.852011 46.829635 
L 650.640546 48.0411 
L 649.429948 49.251698 
L 648.220289 50.461357 
L 647.011643 51.670003 
L 645.804083 52.877563 
L 644.597683 54.083963 
L 643.392515 55.289131 
L 642.188652 56.492994 
L 640.986168 57.695478 
L 639.785135 58.896512 
L 638.585625 60.096021 
L 637.387712 61.293934 
L 636.191468 62.490178 
L 634.996966 63.68468 
L 633.804277 64.877369 
L 632.613475 66.068171 
L 631.424631 67.257015 
L 630.237817 68.443829 
L 629.053105 69.628541 
L 627.870567 70.811079 
L 626.690275 71.991371 
L 625.5123 73.169346 
L 624.336713 74.344933 
L 623.163585 75.518061 
L 621.992988 76.688658 
L 620.824993 77.856653 
L 619.65967 79.021976 
L 618.49709 80.184556 
L 617.337323 81.344323 
L 616.180439 82.501207 
L 615.026509 83.655137 
L 613.875603 84.806043 
L 612.727789 85.953857 
L 611.583139 87.098507 
L 610.44172 88.239926 
L 609.303603 89.378043 
L 608.168856 90.512791 
L 607.037547 91.644099 
L 605.909746 92.7719 
L 604.78552 93.896126 
L 603.664939 95.016707 
L 602.548069 96.133577 
L 601.434978 97.246668 
L 600.325734 98.355912 
L 599.220403 99.461243 
L 598.119054 100.562592 
L 597.021752 101.659894 
L 595.928564 102.753082 
L 594.839556 103.84209 
L 593.754795 104.926851 
L 592.674345 106.007301 
L 591.598273 107.083373 
L 590.526643 108.155003 
L 589.459521 109.222126 
L 588.39697 110.284676 
L 587.339056 111.34259 
L 586.285843 112.395804 
L 585.237393 113.444253 
L 584.193772 114.487874 
L 583.155041 115.526605 
L 582.121265 116.560382 
L 581.092504 117.589142 
L 580.068823 118.612823 
L 579.050283 119.631364 
L 578.036945 120.644702 
L 577.02887 121.652776 
L 576.026121 122.655525 
L 575.028758 123.652888 
L 574.03684 124.644806 
L 573.050429 125.631217 
L 572.069584 126.612062 
L 571.094364 127.587282 
L 570.124828 128.556818 
L 569.161036 129.52061 
L 568.203045 130.478601 
L 567.250914 131.430733 
L 566.304699 132.376947 
L 565.36446 133.317186 
L 564.430251 134.251395 
L 563.502131 135.179515 
L 562.580155 136.101491 
L 561.664379 137.017267 
L 560.754859 137.926787 
L 559.851649 138.829997 
L 558.954805 139.726841 
L 558.06438 140.617266 
L 557.180429 141.501217 
L 556.303005 142.378641 
L 555.432162 143.249484 
L 554.567951 144.113695 
L 553.710426 144.97122 
L 552.859638 145.822008 
L 552.015639 146.666007 
L 551.17848 147.503166 
L 550.348212 148.333434 
L 549.524885 149.156761 
L 548.708548 149.973098 
L 547.899252 150.782394 
L 547.097045 151.584601 
L 546.301976 152.37967 
L 545.514093 153.167553 
L 544.733444 153.948202 
L 543.960076 154.72157 
L 543.194035 155.487611 
L 542.43537 156.246276 
L 541.684124 156.997522 
L 540.940344 157.741302 
L 540.204075 158.477571 
L 539.475361 159.206285 
L 538.754247 159.927399 
L 538.040776 160.64087 
L 537.334991 161.346655 
L 536.636936 162.04471 
L 535.946652 162.734994 
L 535.264181 163.417465 
L 534.589565 164.092081 
L 534.589565 164.092081 
L 535.128573 163.553073 
L 535.659079 163.022567 
L 536.181053 162.500593 
L 536.694463 161.987184 
L 537.199276 161.48237 
L 537.695464 160.986182 
L 538.182996 160.49865 
L 538.661842 160.019804 
L 539.131973 159.549673 
L 539.593361 159.088285 
L 540.045978 158.635668 
L 540.489797 158.191849 
L 540.92479 157.756856 
L 541.350931 157.330715 
L 541.768195 156.913451 
L 542.176556 156.50509 
L 542.575989 156.105657 
L 542.966471 155.715175 
L 543.347977 155.333669 
L 543.720484 154.961162 
L 544.083971 154.597675 
L 544.438414 154.243232 
L 544.783793 153.897853 
L 545.120087 153.561559 
L 545.447274 153.234372 
L 545.765336 152.91631 
L 546.074253 152.607393 
L 546.374006 152.30764 
L 546.664578 152.017068 
L 546.94595 151.735696 
L 547.218106 151.463541 
L 547.481028 151.200618 
L 547.734702 150.946944 
L 547.979112 150.702534 
L 548.214242 150.467404 
L 548.44008 150.241567 
L 548.65661 150.025036 
L 548.86382 149.817826 
L 549.061698 149.619948 
L 549.250231 149.431415 
L 549.429408 149.252238 
L 549.599218 149.082428 
L 549.759651 148.921995 
L 549.910697 148.770949 
L 550.052348 148.629299 
L 550.184593 148.497053 
L 550.307426 148.37422 
L 550.420839 148.260807 
L 550.524825 148.156821 
L 550.619378 148.062268 
L 550.704491 147.977155 
L 550.780161 147.901485 
L 550.846382 147.835264 
L 550.90315 147.778496 
L 550.950463 147.731183 
L 550.988316 147.69333 
L 551.016708 147.664938 
L 551.035637 147.646009 
L 551.045101 147.636545 
L 551.045101 147.636545 
L 551.035637 147.646009 
L 551.016708 147.664938 
L 550.988316 147.69333 
L 550.950463 147.731183 
L 550.90315 147.778496 
L 550.846382 147.835264 
L 550.780161 147.901485 
L 550.704491 147.977155 
L 550.619378 148.062268 
L 550.524825 148.156821 
L 550.420839 148.260807 
L 550.307426 148.37422 
L 550.184593 148.497053 
L 550.052348 148.629299 
L 549.910697 148.770949 
L 549.759651 148.921995 
L 549.599218 149.082428 
L 549.429408 149.252238 
L 549.250231 149.431415 
L 549.061698 149.619948 
L 548.86382 149.817826 
L 548.65661 150.025036 
L 548.44008 150.241567 
L 548.214242 150.467404 
L 547.979112 150.702534 
L 547.734702 150.946944 
L 547.481028 151.200618 
L 547.218106 151.463541 
L 546.94595 151.735696 
L 546.664578 152.017068 
L 546.374006 152.30764 
L 546.074253 152.607393 
L 545.765336 152.91631 
L 545.447274 153.234372 
L 545.120087 153.561559 
L 544.783793 153.897853 
L 544.438414 154.243232 
L 544.083971 154.597675 
L 543.720484 154.961162 
L 543.347977 155.333669 
L 542.966471 155.715175 
L 542.575989 156.105657 
L 542.176556 156.50509 
L 541.768195 156.913451 
L 541.350931 157.330715 
L 540.92479 157.756856 
L 540.489797 158.191849 
L 540.045978 158.635668 
L 539.593361 159.088285 
L 539.131973 159.549673 
L 538.661842 160.019804 
L 538.182996 160.49865 
L 537.695464 160.986182 
L 537.199276 161.48237 
L 536.694463 161.987184 
L 536.181053 162.500593 
L 535.659079 163.022567 
L 535.128573 163.553073 
L 534.589565 164.092081 
L 534.589565 164.092081 
L 535.264181 163.417465 
L 535.946652 162.734994 
L 536.636936 162.04471 
L 537.334991 161.346655 
L 538.040776 160.64087 
L 538.754247 159.927399 
L 539.475361 159.206285 
L 540.204075 158.477571 
L 540.940344 157.741302 
L 541.684124 156.997522 
L 542.43537 156.246276 
L 543.194035 155.487611 
L 543.960076 154.72157 
L 544.733444 153.948202 
L 545.514093 153.167553 
L 546.301976 152.37967 
L 547.097045 151.584601 
L 547.899252 150.782394 
L 548.708548 149.973098 
L 549.524885 149.156761 
L 550.348212 148.333434 
L 551.17848 147.503166 
L 552.015639 146.666007 
L 552.859638 145.822008 
L 553.710426 144.97122 
L 554.567951 144.113695 
L 555.432162 143.249484 
L 556.303005 142.378641 
L 557.180429 141.501217 
L 558.06438 140.617266 
L 558.954805 139.726841 
L 559.851649 138.829997 
L 560.754859 137.926787 
L 561.664379 137.017267 
L 562.580155 136.101491 
L 563.502131 135.179515 
L 564.430251 134.251395 
L 565.36446 133.317186 
L 566.304699 132.376947 
L 567.250914 131.430733 
L 568.203045 130.478601 
L 569.161036 129.52061 
L 570.124828 128.556818 
L 571.094364 127.587282 
L 572.069584 126.612062 
L 573.050429 125.631217 
L 574.03684 124.644806 
L 575.028758 123.652888 
L 576.026121 122.655525 
L 577.02887 121.652776 
L 578.036945 120.644702 
L 579.050283 119.631364 
L 580.068823 118.612823 
L 581.092504 117.589142 
L 582.121265 116.560382 
L 583.155041 115.526605 
L 584.193772 114.487874 
L 585.237393 113.444253 
L 586.285843 112.395804 
L 587.339056 111.34259 
L 588.39697 110.284676 
L 589.459521 109.222126 
L 590.526643 108.155003 
L 591.598273 107.083373 
L 592.674345 106.007301 
L 593.754795 104.926851 
L 594.839556 103.84209 
L 595.928564 102.753082 
L 597.021752 101.659894 
L 598.119054 100.562592 
L 599.220403 99.461243 
L 600.325734 98.355912 
L 601.434978 97.246668 
L 602.548069 96.133577 
L 603.664939 95.016707 
L 604.78552 93.896126 
L 605.909746 92.7719 
L 607.037547 91.644099 
L 608.168856 90.512791 
L 609.303603 89.378043 
L 610.44172 88.239926 
L 611.583139 87.098507 
L 612.727789 85.953857 
L 613.875603 84.806043 
L 615.026509 83.655137 
L 616.180439 82.501207 
L 617.337323 81.344323 
L 618.49709 80.184556 
L 619.65967 79.021976 
L 620.824993 77.856653 
L 621.992988 76.688658 
L 623.163585 75.518061 
L 624.336713 74.344933 
L 625.5123 73.169346 
L 626.690275 71.991371 
L 627.870567 70.811079 
L 629.053105 69.628541 
L 630.237817 68.443829 
L 631.424631 67.257015 
L 632.613475 66.068171 
L 633.804277 64.877369 
L 634.996966 63.68468 
L 636.191468 62.490178 
L 637.387712 61.293934 
L 638.585625 60.096021 
L 639.785135 58.896512 
L 640.986168 57.695478 
L 642.188652 56.492994 
L 643.392515 55.289131 
L 644.597683 54.083963 
L 645.804083 52.877563 
L 647.011643 51.670003 
L 648.220289 50.461357 
L 649.429948 49.251698 
L 650.640546 48.0411 
L 651.852011 46.829635 
L 653.064269 45.617377 
L 654.277246 44.4044 
L 655.49087 43.190776 
z
" clip-path="url(#pd7179e2219)" style="fill: #7b85ff; opacity: 0.15; stroke: #7b85ff; stroke-linejoin: miter"/>
   </g>
   <g id="line2d_6">
    <path d="M 574.89 43.190776 
L 574.811706 44.4044 
L 574.72397 45.617377 
L 574.626796 46.829635 
L 574.520191 48.0411 
L 574.40416 49.251698 
L 574.278712 50.461357 
L 574.143853 51.670003 
L 573.999591 52.877563 
L 573.845937 54.083963 
L 573.682898 55.289131 
L 573.510484 56.492994 
L 573.328707 57.695478 
L 573.137577 58.896512 
L 572.937105 60.096021 
L 572.727305 61.293934 
L 572.508187 62.490178 
L 572.279767 63.68468 
L 572.042057 64.877369 
L 571.795073 66.068171 
L 571.538828 67.257015 
L 571.273339 68.443829 
L 570.998621 69.628541 
L 570.714692 70.811079 
L 570.421568 71.991371 
L 570.119267 73.169346 
L 569.807808 74.344933 
L 569.487209 75.518061 
L 569.15749 76.688658 
L 568.81867 77.856653 
L 568.470771 79.021976 
L 568.113814 80.184556 
L 567.747819 81.344323 
L 567.372809 82.501207 
L 566.988807 83.655137 
L 566.595836 84.806043 
L 566.19392 85.953857 
L 565.783084 87.098507 
L 565.363351 88.239926 
L 564.934748 89.378043 
L 564.497301 90.512791 
L 564.051036 91.644099 
L 563.595979 92.7719 
L 563.13216 93.896126 
L 562.659604 95.016707 
L 562.178343 96.133577 
L 561.688403 97.246668 
L 561.189816 98.355912 
L 560.682611 99.461243 
L 560.16682 100.562592 
L 559.642472 101.659894 
L 559.109601 102.753082 
L 558.568238 103.84209 
L 558.018416 104.926851 
L 557.460168 106.007301 
L 556.893529 107.083373 
L 556.318532 108.155003 
L 555.735213 109.222126 
L 555.143607 110.284676 
L 554.543749 111.34259 
L 553.935675 112.395804 
L 553.319424 113.444253 
L 552.695032 114.487874 
L 552.062536 115.526605 
L 551.421976 116.560382 
L 550.77339 117.589142 
L 550.116816 118.612823 
L 549.452296 119.631364 
L 548.779869 120.644702 
L 548.099577 121.652776 
L 547.411459 122.655525 
L 546.715558 123.652888 
L 546.011917 124.644806 
L 545.300577 125.631217 
L 544.581581 126.612062 
L 543.854974 127.587282 
L 543.1208 128.556818 
L 542.379102 129.52061 
L 541.629925 130.478601 
L 540.873316 131.430733 
L 540.10932 132.376947 
L 539.337983 133.317186 
L 538.559352 134.251395 
L 537.773473 135.179515 
L 536.980396 136.101491 
L 536.180167 137.017267 
L 535.372835 137.926787 
L 534.55845 138.829997 
L 533.737059 139.726841 
L 532.908714 140.617266 
L 532.073464 141.501217 
L 531.23136 142.378641 
L 530.382453 143.249484 
L 529.526795 144.113695 
L 528.664436 144.97122 
L 527.79543 145.822008 
L 526.919829 146.666007 
L 526.037685 147.503166 
L 525.149054 148.333434 
L 524.253987 149.156761 
L 523.352541 149.973098 
L 522.444768 150.782394 
L 521.530724 151.584601 
L 520.610465 152.37967 
L 519.684046 153.167553 
L 518.751523 153.948202 
L 517.812953 154.72157 
L 516.868393 155.487611 
L 515.9179 156.246276 
L 514.961531 156.997522 
L 513.999344 157.741302 
L 513.031398 158.477571 
L 512.057751 159.206285 
L 511.078463 159.927399 
L 510.093592 160.64087 
L 509.103198 161.346655 
L 508.107341 162.04471 
L 507.106082 162.734994 
L 506.099481 163.417465 
L 505.087599 164.092081 
" clip-path="url(#pd7179e2219)" style="fill: none; stroke: #7b85ff; stroke-width: 2.2; stroke-linecap: square"/>
   </g>
   <g id="line2d_7">
    <path d="M 505.087599 164.092081 
L 506.177775 163.553073 
L 507.272112 163.022567 
L 508.370545 162.500593 
L 509.473007 161.987184 
L 510.579432 161.48237 
L 511.689751 160.986182 
L 512.803899 160.49865 
L 513.921807 160.019804 
L 515.043407 159.549673 
L 516.168633 159.088285 
L 517.297415 158.635668 
L 518.429686 158.191849 
L 519.565376 157.756856 
L 520.704418 157.330715 
L 521.846741 156.913451 
L 522.992277 156.50509 
L 524.140957 156.105657 
L 525.29271 155.715175 
L 526.447468 155.333669 
L 527.605159 154.961162 
L 528.765715 154.597675 
L 529.929064 154.243232 
L 531.095137 153.897853 
L 532.263862 153.561559 
L 533.435169 153.234372 
L 534.608987 152.91631 
L 535.785244 152.607393 
L 536.963871 152.30764 
L 538.144794 152.017068 
L 539.327943 151.735696 
L 540.513246 151.463541 
L 541.700631 151.200618 
L 542.890026 150.946944 
L 544.08136 150.702534 
L 545.274559 150.467404 
L 546.469553 150.241567 
L 547.666268 150.025036 
L 548.864631 149.817826 
L 550.064571 149.619948 
L 551.266015 149.431415 
L 552.46889 149.252238 
L 553.673122 149.082428 
L 554.87864 148.921995 
L 556.08537 148.770949 
L 557.293239 148.629299 
L 558.502173 148.497053 
L 559.7121 148.37422 
L 560.922947 148.260807 
L 562.134639 148.156821 
L 563.347104 148.062268 
L 564.560269 147.977155 
L 565.774058 147.901485 
L 566.9884 147.835264 
L 568.203221 147.778496 
L 569.418447 147.731183 
L 570.634004 147.69333 
L 571.849819 147.664938 
L 573.065817 147.646009 
L 574.281927 147.636545 
L 575.498073 147.636545 
L 576.714183 147.646009 
L 577.930181 147.664938 
L 579.145996 147.69333 
L 580.361553 147.731183 
L 581.576779 147.778496 
L 582.7916 147.835264 
L 584.005942 147.901485 
L 585.219731 147.977155 
L 586.432896 148.062268 
L 587.645361 148.156821 
L 588.857053 148.260807 
L 590.0679 148.37422 
L 591.277827 148.497053 
L 592.486761 148.629299 
L 593.69463 148.770949 
L 594.90136 148.921995 
L 596.106878 149.082428 
L 597.31111 149.252238 
L 598.513985 149.431415 
L 599.715429 149.619948 
L 600.915369 149.817826 
L 602.113732 150.025036 
L 603.310447 150.241567 
L 604.505441 150.467404 
L 605.69864 150.702534 
L 606.889974 150.946944 
L 608.079369 151.200618 
L 609.266754 151.463541 
L 610.452057 151.735696 
L 611.635206 152.017068 
L 612.816129 152.30764 
L 613.994756 152.607393 
L 615.171013 152.91631 
L 616.344831 153.234372 
L 617.516138 153.561559 
L 618.684863 153.897853 
L 619.850936 154.243232 
L 621.014285 154.597675 
L 622.174841 154.961162 
L 623.332532 155.333669 
L 624.48729 155.715175 
L 625.639043 156.105657 
L 626.787723 156.50509 
L 627.933259 156.913451 
L 629.075582 157.330715 
L 630.214624 157.756856 
L 631.350314 158.191849 
L 632.482585 158.635668 
L 633.611367 159.088285 
L 634.736593 159.549673 
L 635.858193 160.019804 
L 636.976101 160.49865 
L 638.090249 160.986182 
L 639.200568 161.48237 
L 640.306993 161.987184 
L 641.409455 162.500593 
L 642.507888 163.022567 
L 643.602225 163.553073 
L 644.692401 164.092081 
" clip-path="url(#pd7179e2219)" style="fill: none; stroke: #7b85ff; stroke-width: 2.2; stroke-linecap: square"/>
   </g>
   <g id="line2d_8">
    <path d="M 644.692401 164.092081 
L 643.680519 163.417465 
L 642.673918 162.734994 
L 641.672659 162.04471 
L 640.676802 161.346655 
L 639.686408 160.64087 
L 638.701537 159.927399 
L 637.722249 159.206285 
L 636.748602 158.477571 
L 635.780656 157.741302 
L 634.818469 156.997522 
L 633.8621 156.246276 
L 632.911607 155.487611 
L 631.967047 154.72157 
L 631.028477 153.948202 
L 630.095954 153.167553 
L 629.169535 152.37967 
L 628.249276 151.584601 
L 627.335232 150.782394 
L 626.427459 149.973098 
L 625.526013 149.156761 
L 624.630946 148.333434 
L 623.742315 147.503166 
L 622.860171 146.666007 
L 621.98457 145.822008 
L 621.115564 144.97122 
L 620.253205 144.113695 
L 619.397547 143.249484 
L 618.54864 142.378641 
L 617.706536 141.501217 
L 616.871286 140.617266 
L 616.042941 139.726841 
L 615.22155 138.829997 
L 614.407165 137.926787 
L 613.599833 137.017267 
L 612.799604 136.101491 
L 612.006527 135.179515 
L 611.220648 134.251395 
L 610.442017 133.317186 
L 609.67068 132.376947 
L 608.906684 131.430733 
L 608.150075 130.478601 
L 607.400898 129.52061 
L 606.6592 128.556818 
L 605.925026 127.587282 
L 605.198419 126.612062 
L 604.479423 125.631217 
L 603.768083 124.644806 
L 603.064442 123.652888 
L 602.368541 122.655525 
L 601.680423 121.652776 
L 601.000131 120.644702 
L 600.327704 119.631364 
L 599.663184 118.612823 
L 599.00661 117.589142 
L 598.358024 116.560382 
L 597.717464 115.526605 
L 597.084968 114.487874 
L 596.460576 113.444253 
L 595.844325 112.395804 
L 595.236251 111.34259 
L 594.636393 110.284676 
L 594.044787 109.222126 
L 593.461468 108.155003 
L 592.886471 107.083373 
L 592.319832 106.007301 
L 591.761584 104.926851 
L 591.211762 103.84209 
L 590.670399 102.753082 
L 590.137528 101.659894 
L 589.61318 100.562592 
L 589.097389 99.461243 
L 588.590184 98.355912 
L 588.091597 97.246668 
L 587.601657 96.133577 
L 587.120396 95.016707 
L 586.64784 93.896126 
L 586.184021 92.7719 
L 585.728964 91.644099 
L 585.282699 90.512791 
L 584.845252 89.378043 
L 584.416649 88.239926 
L 583.996916 87.098507 
L 583.58608 85.953857 
L 583.184164 84.806043 
L 582.791193 83.655137 
L 582.407191 82.501207 
L 582.032181 81.344323 
L 581.666186 80.184556 
L 581.309229 79.021976 
L 580.96133 77.856653 
L 580.62251 76.688658 
L 580.292791 75.518061 
L 579.972192 74.344933 
L 579.660733 73.169346 
L 579.358432 71.991371 
L 579.065308 70.811079 
L 578.781379 69.628541 
L 578.506661 68.443829 
L 578.241172 67.257015 
L 577.984927 66.068171 
L 577.737943 64.877369 
L 577.500233 63.68468 
L 577.271813 62.490178 
L 577.052695 61.293934 
L 576.842895 60.096021 
L 576.642423 58.896512 
L 576.451293 57.695478 
L 576.269516 56.492994 
L 576.097102 55.289131 
L 575.934063 54.083963 
L 575.780409 52.877563 
L 575.636147 51.670003 
L 575.501288 50.461357 
L 575.37584 49.251698 
L 575.259809 48.0411 
L 575.153204 46.829635 
L 575.05603 45.617377 
L 574.968294 44.4044 
L 574.89 43.190776 
" clip-path="url(#pd7179e2219)" style="fill: none; stroke: #7b85ff; stroke-width: 2.2; stroke-linecap: square"/>
   </g>
   <g id="text_9">
    <!-- 7° -->
    <g transform="translate(569.776875 51.250863)scale(0.09 -0.09)">
     <use xlink:href="#DejaVuSans-37"/>
     <use xlink:href="#DejaVuSans-b0" x="63.623047"/>
    </g>
   </g>
   <g id="text_10">
    <!-- 7° -->
    <g transform="translate(506.954714 160.062037)scale(0.09 -0.09)">
     <use xlink:href="#DejaVuSans-37"/>
     <use xlink:href="#DejaVuSans-b0" x="63.623047"/>
    </g>
   </g>
   <g id="text_11">
    <!-- 7° -->
    <g transform="translate(632.599036 160.062037)scale(0.09 -0.09)">
     <use xlink:href="#DejaVuSans-37"/>
     <use xlink:href="#DejaVuSans-b0" x="63.623047"/>
    </g>
   </g>
   <g id="text_12">
    <!-- Lobachevsky: $k=-1$, suma $=21°&lt;180°$ -->
    <g transform="translate(469.09 14.801646)scale(0.1 -0.1)">
     <defs>
      <path id="DejaVuSans-4c" d="M 628 4666 
L 1259 4666 
L 1259 531 
L 3531 531 
L 3531 0 
L 628 0 
L 628 4666 
z
" transform="scale(0.015625)"/>
      <path id="DejaVuSans-62" d="M 3116 1747 
Q 3116 2381 2855 2742 
Q 2594 3103 2138 3103 
Q 1681 3103 1420 2742 
Q 1159 2381 1159 1747 
Q 1159 1113 1420 752 
Q 1681 391 2138 391 
Q 2594 391 2855 752 
Q 3116 1113 3116 1747 
z
M 1159 2969 
Q 1341 3281 1617 3432 
Q 1894 3584 2278 3584 
Q 2916 3584 3314 3078 
Q 3713 2572 3713 1747 
Q 3713 922 3314 415 
Q 2916 -91 2278 -91 
Q 1894 -91 1617 61 
Q 1341 213 1159 525 
L 1159 0 
L 581 0 
L 581 4863 
L 1159 4863 
L 1159 2969 
z
" transform="scale(0.015625)"/>
      <path id="DejaVuSans-63" d="M 3122 3366 
L 3122 2828 
Q 2878 2963 2633 3030 
Q 2388 3097 2138 3097 
Q 1578 3097 1268 2742 
Q 959 2388 959 1747 
Q 959 1106 1268 751 
Q 1578 397 2138 397 
Q 2388 397 2633 464 
Q 2878 531 3122 666 
L 3122 134 
Q 2881 22 2623 -34 
Q 2366 -91 2075 -91 
Q 1284 -91 818 406 
Q 353 903 353 1747 
Q 353 2603 823 3093 
Q 1294 3584 2113 3584 
Q 2378 3584 2631 3529 
Q 2884 3475 3122 3366 
z
" transform="scale(0.015625)"/>
      <path id="DejaVuSans-68" d="M 3513 2113 
L 3513 0 
L 2938 0 
L 2938 2094 
Q 2938 2591 2744 2837 
Q 2550 3084 2163 3084 
Q 1697 3084 1428 2787 
Q 1159 2491 1159 1978 
L 1159 0 
L 581 0 
L 581 4863 
L 1159 4863 
L 1159 2956 
Q 1366 3272 1645 3428 
Q 1925 3584 2291 3584 
Q 2894 3584 3203 3211 
Q 3513 2838 3513 2113 
z
" transform="scale(0.015625)"/>
      <path id="DejaVuSans-76" d="M 191 3500 
L 800 3500 
L 1894 563 
L 2988 3500 
L 3597 3500 
L 2284 0 
L 1503 0 
L 191 3500 
z
" transform="scale(0.015625)"/>
      <path id="DejaVuSans-6b" d="M 581 4863 
L 1159 4863 
L 1159 1991 
L 2875 3500 
L 3609 3500 
L 1753 1863 
L 3688 0 
L 2938 0 
L 1159 1709 
L 1159 0 
L 581 0 
L 581 4863 
z
" transform="scale(0.015625)"/>
      <path id="DejaVuSans-79" d="M 2059 -325 
Q 1816 -950 1584 -1140 
Q 1353 -1331 966 -1331 
L 506 -1331 
L 506 -850 
L 844 -850 
Q 1081 -850 1212 -737 
Q 1344 -625 1503 -206 
L 1606 56 
L 191 3500 
L 800 3500 
L 1894 763 
L 2988 3500 
L 3597 3500 
L 2059 -325 
z
" transform="scale(0.015625)"/>
      <path id="DejaVuSans-2212" d="M 678 2272 
L 4684 2272 
L 4684 1741 
L 678 1741 
L 678 2272 
z
" transform="scale(0.015625)"/>
      <path id="DejaVuSans-3c" d="M 4684 3150 
L 1459 2003 
L 4684 863 
L 4684 294 
L 678 1747 
L 678 2266 
L 4684 3719 
L 4684 3150 
z
" transform="scale(0.015625)"/>
     </defs>
     <use xlink:href="#DejaVuSans-4c" transform="translate(0 0.015625)"/>
     <use xlink:href="#DejaVuSans-6f" transform="translate(55.712891 0.015625)"/>
     <use xlink:href="#DejaVuSans-62" transform="translate(116.894531 0.015625)"/>
     <use xlink:href="#DejaVuSans-61" transform="translate(180.371094 0.015625)"/>
     <use xlink:href="#DejaVuSans-63" transform="translate(241.650391 0.015625)"/>
     <use xlink:href="#DejaVuSans-68" transform="translate(296.630859 0.015625)"/>
     <use xlink:href="#DejaVuSans-65" transform="translate(360.009766 0.015625)"/>
     <use xlink:href="#DejaVuSans-76" transform="translate(421.533203 0.015625)"/>
     <use xlink:href="#DejaVuSans-73" transform="translate(480.712891 0.015625)"/>
     <use xlink:href="#DejaVuSans-6b" transform="translate(532.8125 0.015625)"/>
     <use xlink:href="#DejaVuSans-79" transform="translate(590.722656 0.015625)"/>
     <use xlink:href="#DejaVuSans-3a" transform="translate(649.902344 0.015625)"/>
     <use xlink:href="#DejaVuSans-20" transform="translate(683.59375 0.015625)"/>
     <use xlink:href="#DejaVuSans-Oblique-6b" transform="translate(715.380859 0.015625)"/>
     <use xlink:href="#DejaVuSans-3d" transform="translate(792.773438 0.015625)"/>
     <use xlink:href="#DejaVuSans-2212" transform="translate(915.527344 0.015625)"/>
     <use xlink:href="#DejaVuSans-31" transform="translate(1018.798828 0.015625)"/>
     <use xlink:href="#DejaVuSans-2c" transform="translate(1082.421875 0.015625)"/>
     <use xlink:href="#DejaVuSans-20" transform="translate(1114.208984 0.015625)"/>
     <use xlink:href="#DejaVuSans-73" transform="translate(1145.996094 0.015625)"/>
     <use xlink:href="#DejaVuSans-75" transform="translate(1198.095703 0.015625)"/>
     <use xlink:href="#DejaVuSans-6d" transform="translate(1261.474609 0.015625)"/>
     <use xlink:href="#DejaVuSans-61" transform="translate(1358.886719 0.015625)"/>
     <use xlink:href="#DejaVuSans-20" transform="translate(1420.166016 0.015625)"/>
     <use xlink:href="#DejaVuSans-3d" transform="translate(1471.435547 0.015625)"/>
     <use xlink:href="#DejaVuSans-32" transform="translate(1574.707031 0.015625)"/>
     <use xlink:href="#DejaVuSans-31" transform="translate(1638.330078 0.015625)"/>
     <use xlink:href="#DejaVuSans-b0" transform="translate(1701.953125 0.015625)"/>
     <use xlink:href="#DejaVuSans-3c" transform="translate(1771.435547 0.015625)"/>
     <use xlink:href="#DejaVuSans-31" transform="translate(1874.707031 0.015625)"/>
     <use xlink:href="#DejaVuSans-38" transform="translate(1938.330078 0.015625)"/>
     <use xlink:href="#DejaVuSans-30" transform="translate(2001.953125 0.015625)"/>
     <use xlink:href="#DejaVuSans-b0" transform="translate(2065.576172 0.015625)"/>
    </g>
   </g>
  </g>
 </g>
 <defs>
  <clipPath id="p3db2d48378">
   <rect x="7.2" y="20.801646" width="205.98" height="205.98"/>
  </clipPath>
  <clipPath id="p93c69012a7">
   <rect x="239.55" y="20.798437" width="205.98" height="205.986417"/>
  </clipPath>
  <clipPath id="pd7179e2219">
   <rect x="471.9" y="20.801646" width="205.98" height="205.98"/>
  </clipPath>
 </defs>
</svg>
