<?xml version="1.0" encoding="utf-8"?>
<!-- Generator: Adobe Illustrator 24.2.1, SVG Export Plug-In . SVG Version: 6.00 Build 0)  -->
<svg version="1.1" id="Calque_1" xmlns="http://www.w3.org/2000/svg" xmlns:xlink="http://www.w3.org/1999/xlink" x="0px" y="0px"
	 viewBox="0 0 123.1 155" style="enable-background:new 0 0 123.1 155;" xml:space="preserve">
<style type="text/css">
	.st0{fill:#FFCB9A;}
	.st1{fill:#00344A;}
</style>
<circle class="st0" cx="61.5" cy="114.3" r="13.4"/>
<path id="XMLID_282_" class="st1" d="M69.1,155H53.8c-1.7,0-3.1-1.2-3.1-2.7l-3-19.2c0-1.5,1.4-2.7,3.1-2.7h21.4
	c1.7,0,3.1,1.2,3.1,2.7l-3.1,19.2C72.1,153.8,70.8,155,69.1,155z"/>
<g>
	<g id="XMLID_285_">
		<path id="XMLID_286_" class="st1" d="M86.2,4.7c-1.3-0.5-2.5,0.6-1.6,1.5c10.9,7.9,20.7,20.8,20.7,36.2c0,19.5-12.2,38-29.5,57.5
			c-0.8,0.9,1.1,1.9,2.1,1.1c24.9-19.8,43.7-38.3,43.7-57.9C121.4,25.5,105.5,11.6,86.2,4.7z"/>
		<path id="XMLID_287_" class="st1" d="M17.7,42.3c0-15.4,9.5-28.2,20.4-36c1.1-0.7-0.3-1.9-1.6-1.5C17,11.7,1.4,25.5,1.4,43
			c0,21.9,20.1,39,44.5,57.8c1.1,0.8,2.9-0.2,2.1-1.1C31,81.3,17.5,64,17.7,42.3z"/>
	</g>
	<path id="XMLID_280_" class="st1" d="M61.9,0c-20.4,0-37,17.1-37.1,43C24.7,68.9,40.9,88.1,58,111.1c3.8,4.5,4.4,4.5,7.4,0
		C82.9,87.5,98.6,65.9,98.6,43C98.7,17.1,82.3,0,61.9,0z"/>
</g>
</svg>
